<svg id="Layer_1" data-name="Layer 1" xmlns="http://www.w3.org/2000/svg" viewBox="0 0 64.62 64.55"><defs><style>.cls-1{fill:#1d1d1b;}.cls-1,.cls-4{stroke:#fff;stroke-miterlimit:10;}.cls-2{fill:#35b6ea;}.cls-3{fill:#009ee2;}.cls-4{fill:#c9c34d;}</style></defs><title>Blaa liten planet</title><g id="lyseblå_planet" data-name="lyseblå planet"><path class="cls-1" d="M29.91,23.29c-15.19,0-27.5,3.44-27.5,7.68s12.31,7.68,27.5,7.68,27.5-3.44,27.5-7.68S45.1,23.29,29.91,23.29Zm0,14.05c-13.3,0-24.09-3-24.09-6.73s10.79-6.72,24.09-6.72S54,26.9,54,30.61,43.21,37.34,29.91,37.34Z"/><ellipse class="cls-2" cx="29.91" cy="32.77" rx="19.56" ry="18.54"/><ellipse class="cls-3" cx="30.61" cy="32.64" rx="18.51" ry="18.07"/><path class="cls-1" d="M48.11,25.56a2.53,2.53,0,0,1,0,.28c0,.24,0,.47,0,.71C51.77,27.73,54,29.27,54,31c0,3.24-8.2,5.94-19.12,6.58a27,27,0,0,1-5,.47,26.62,26.62,0,0,1-5.05-.48c-10.86-.65-19-3.34-19-6.57,0-1.68,2.2-3.21,5.83-4.39,0-.24,0-.48,0-.73v-.26C6,27,2.41,29,2.41,31.31c0,4.24,12.31,7.68,27.5,7.68s27.5-3.44,27.5-7.68C57.41,29,53.82,27,48.11,25.56Z"/><path class="cls-4" d="M47.36,23.6v.27c0,.22,0,.45,0,.68C50.86,25.68,53,27.16,53,28.77c0,3.11-7.85,5.7-18.32,6.31a25.64,25.64,0,0,1-4.8.45A25.31,25.31,0,0,1,25,35.07c-10.4-.62-18.2-3.2-18.2-6.3,0-1.6,2.1-3.07,5.58-4.2,0-.23,0-.47,0-.7a2,2,0,0,1,0-.25C7,25,3.56,26.93,3.56,29.11c0,4.07,11.8,7.36,26.35,7.36s26.35-3.29,26.35-7.36C56.26,26.91,52.82,24.94,47.36,23.6Z"/><path class="cls-2" d="M38.58,19.83a2.86,2.86,0,0,1,3.54.86c1.32,1.49,1.69,4.55,1.28,4.77S41.88,23.34,40.51,22,38.11,20.28,38.58,19.83Z"/><circle class="cls-2" cx="46.26" cy="30.03" r="0.69"/><ellipse class="cls-2" cx="40.12" cy="27.64" rx="0.86" ry="1.66" transform="translate(-6.23 12.64) rotate(-16.64)"/></g></svg>
