<svg xmlns="http://www.w3.org/2000/svg" viewBox="0 0 152 185"><defs><style>.cls-1{fill:#1d1d1b;}.cls-2{fill:#366592;}.cls-3{fill:#878787;}</style></defs><title>blue logo</title><g id="Layer_2" data-name="Layer 2"><g id="SH_gr책bl책" data-name="SH gr책bl책"><path class="cls-1" d="M139,178.86v-28H87.35v28H79.22V101.49h8.13v42.08H139V52.49H147V178.86Z"/><path class="cls-2" d="M71.1,5.64A66.11,66.11,0,1,1,5,71.75,66.11,66.11,0,0,1,71.1,5.64"/><path class="cls-3" d="M68.36,167.18a42.87,42.87,0,0,0,14.72-.7,42.42,42.42,0,0,0,12.5-4.83q10.89-6.56,13.5-14.55t-2.69-16.81a21.26,21.26,0,0,0-6.31-6.91,24.59,24.59,0,0,0-8.84-3.46q-5.25-1.07-20.73-1.26-14-.1-20.65-1.64a31.44,31.44,0,0,1-11.33-4.89,31.13,31.13,0,0,1-8.34-9.43Q23.07,90.87,27,78.2T44.16,57.63a55.28,55.28,0,0,1,20.3-7.7l6,9.94a43.06,43.06,0,0,0-22.33,6.52Q39,71.9,36.13,80.18t2,16.31A23.26,23.26,0,0,0,44.82,104a23.6,23.6,0,0,0,9.48,3.41q5.78.94,18.89.83,17.9,0,26.89,3.55a29,29,0,0,1,14.33,12.45q7.66,12.75,3.78,25t-18.08,20.81A58.13,58.13,0,0,1,86.9,175.6Q79,178,74.67,177.68Z"/></g></g></svg>