<svg xmlns="http://www.w3.org/2000/svg" xmlns:xlink="http://www.w3.org/1999/xlink" viewBox="0 0 500 700"><defs><style>.cls-1{fill:#c6dc98;}.cls-2{fill:#ee7374;}.cls-3{fill:#72a9b7;}.cls-4{fill:#5f7c3e;}.cls-5{fill:#e5d438;}.cls-6{fill:#89cde5;}.cls-7{fill:#14212f;}.cls-8{opacity:0.3;}.cls-9{fill:url(#linear-gradient);}.cls-10{fill:url(#linear-gradient-2);}.cls-11{fill:#f3912e;}.cls-12{fill:#cec4e2;}.cls-13{fill:none;stroke:#f3912e;stroke-miterlimit:10;}.cls-14{fill:#7d6eb0;}.cls-15{opacity:0.9;}.cls-16{fill:url(#linear-gradient-3);}.cls-17{fill:url(#linear-gradient-4);}.cls-18{opacity:0.4;}.cls-19{fill:url(#linear-gradient-5);}.cls-20{fill:url(#linear-gradient-6);}</style><linearGradient id="linear-gradient" x1="321.46" y1="439.82" x2="321.46" y2="386.29" gradientUnits="userSpaceOnUse"><stop offset="0.59" stop-color="#89cee5"/><stop offset="0.83" stop-color="#72a9b7"/></linearGradient><linearGradient id="linear-gradient-2" x1="220.5" y1="404.43" x2="220.5" y2="350.91" gradientTransform="matrix(-1, 0, 0, 1, 384.18, 0)" gradientUnits="userSpaceOnUse"><stop offset="0.43" stop-color="#89cee5"/><stop offset="0.83" stop-color="#72a9b7"/></linearGradient><linearGradient id="linear-gradient-3" x1="244.08" y1="551.76" x2="244.08" y2="493.28" gradientUnits="userSpaceOnUse"><stop offset="0.42" stop-color="#72a9b7"/><stop offset="1" stop-color="#89cee5"/></linearGradient><linearGradient id="linear-gradient-4" x1="274.55" y1="675.36" x2="274.55" y2="621.83" gradientUnits="userSpaceOnUse"><stop offset="0.42" stop-color="#72a9b7"/><stop offset="1" stop-color="#89cee5"/></linearGradient><linearGradient id="linear-gradient-5" x1="163.68" y1="614.52" x2="163.68" y2="572.27" xlink:href="#linear-gradient-3"/><linearGradient id="linear-gradient-6" x1="380.55" y1="585.82" x2="380.55" y2="544.46" xlink:href="#linear-gradient-3"/></defs><title>båtliv</title><g id="rotur"><rect class="cls-1" width="500" height="253.76"/><path class="cls-2" d="M447.8,225.32c-2.15,11.19-2.82,24.77-7.87,35.46-4.87,10.32-13.44,20.37-20.54,29.76-6.93,9.18-28.2,4.6-36.83,12.45s-5.06,31-14.89,37.08-21.63,12.4-32.42,16.32c-11,4-25.14-1.5-36.57-.27-12.2,1.2-22.36-6.32-34.08-9.26s-16.57-13.64-27.13-20c-10.13-6.13-21-7-29.68-15.85-8.32-8.45-29.81-6.87-36.36-17.34-6.31-10.08,4.94-29,.66-40.55-4.14-11.16-2.18-21.66-4.06-33.83C166,206,142.2,193.85,144.19,181.8c2.14-12.94,20.52-20.78,26.78-31.69s-1.08-36.59,8.86-44.93c9.48-8,27.61-10.94,39.87-16C231,84.59,245.51,77,258.78,75.3c12.07-1.54,25.7,21.79,39.07,23,12.73,1.23,28.53-16.16,40.09-13,12.39,3.35,15.74,29.15,26.48,34.36,11.6,5.62,34-7.13,43.24.27,10.13,8.07,5.53,29.83,12.39,39.49,7.45,10.47,33.37,13.29,36.32,25C459.4,196.3,450.19,212.85,447.8,225.32Z"/><path class="cls-3" d="M394.64,224.5c0,.26,35,.67,35,.93s-25.92.26-25.92.52-3.65.38-3.65.64.7.45.69.71-3.06.32-3.07.58,4.75.65,4.73.9,8.15.92,8.13,1.18,6.29.92,6.27,1.18-17.27-.67-17.29-.42,16.29,1.75,16.27,2,9.12,1.37,9.09,1.63.28.67.25.93-37.32-3.28-37.35-3,34.44,4.24,34.41,4.49-32.49-3.31-32.52-3.06,3.47.81,3.43,1.07,29.59,4.46,29.56,4.72-11.84-1.1-11.88-.84-8.47-.77-8.51-.52,5.11,1.3,5.06,1.56,11.9,2.54,11.86,2.8-11.5-1.45-11.55-1.2-14.2-2.15-14.25-1.89,34.55,7.18,34.5,7.43-16.74-2.73-16.79-2.48-19.64-3.63-19.7-3.38,29.05,6.83,29,7.08-7-1-7.08-.73,15.88,4.37,15.82,4.62S401,245.7,401,246s10.25,3.1,10.18,3.35-14-3.14-14.1-2.89,2.33,1.08,2.26,1.33-9.63-2.24-9.7-2,12.59,4.05,12.52,4.29-1.11.17-1.19.42,25.89,8.47,25.81,8.71-30.92-9.06-31-8.82-3.55-.7-3.63-.45,18.09,6.47,18,6.72-23.61-7.52-23.7-7.27,22.26,8.22,22.18,8.46-10.56-3.23-10.65-3,25.4,9.89,25.31,10.14-37.3-13.43-37.39-13.19,21.52,8.75,21.43,9,15.79,6.88,15.7,7.12-24.44-9.21-24.54-9,12.81,5.85,12.71,6.08-12.86-4.82-13-4.59-9.82-3.74-9.92-3.51,26.36,12.15,26.26,12.38-7.63-2.77-7.73-2.53-13-5.4-13.1-5.16-8-3.26-8.07-3,16.41,8.34,16.3,8.57,12.8,6.89,12.69,7.12S385.12,260.17,385,260.4s17.66,9.46,17.54,9.69-2.79-.84-2.91-.61,9.6,5.68,9.48,5.91,8.75,5.42,8.63,5.65-18.41-9.35-18.53-9.13-1.13,0-1.26.2,13.77,8.46,13.65,8.68-4.36-1.79-4.49-1.56-19.76-11-19.89-10.76-7.8-4.18-7.93-4,13.94,9,13.8,9.18,20,13,19.85,13.24-1.32,0-1.46.17-34.73-21.56-34.87-21.34,29.2,19.53,29.06,19.75-.59.35-.73.57,4.56,3.83,4.41,4,.93,1.44.78,1.65-14.4-9.23-14.55-9l-.46.66c-.15.21.77,1.23.62,1.44s-6.74-4.24-6.89-4,9.17,7.43,9,7.64-16.63-11.82-16.78-11.62,1.33,1.57,1.17,1.78S398.47,291.8,398.31,292,383.19,280.83,383,281s17.82,14.88,17.66,15.08S371.77,273.4,371.6,273.6s18.72,15.93,18.56,16.13,8.18,7.57,8,7.76-26.39-21.62-26.55-21.42,11.94,10.81,11.77,11-.45.26-.62.46-.47.24-.64.44,6.7,6.7,6.53,6.89-.27.51-.44.7-6.53-5.28-6.7-5.09-10.27-9-10.45-8.79,4.07,4.44,3.89,4.63-9.38-8.46-9.56-8.28,7.2,7.57,7,7.76S385.2,299.12,385,299.3s.76,1.57.58,1.76-1.64-.85-1.82-.67-8.77-8.31-9-8.13,17.19,18.81,17,19-8.73-8.36-8.92-8.19,4.7,5.93,4.51,6.11-19.1-20.06-19.29-19.89,8.52,10.14,8.33,10.31-12.3-13.11-12.5-12.94,2.66,3.65,2.47,3.82,18.4,22,18.21,22.21-15.57-17.37-15.77-17.21-4.83-5-5-4.88,5.8,7.68,5.6,7.84-.57.07-.77.23-10-11.67-10.19-11.51,18,23.42,17.85,23.58-3-2.85-3.17-2.7,10.11,14,9.9,14.2-18-22.68-18.24-22.52S381.2,322.39,381,322.55s-9-11.12-9.24-11-6.53-8-6.74-7.88,4.63,7.32,4.42,7.47-3.68-4.26-3.9-4.12-3.89-4.68-4.1-4.53,6.28,10,6.07,10.12.6,1.89.39,2,4.92,8.4,4.71,8.55-1.74-1.5-1.95-1.36-17.23-25.45-17.45-25.31,18.31,29.44,18.1,29.58-12.7-19-12.91-18.83,8.82,15.17,8.6,15.3,4,7.77,3.81,7.9-7-10.33-7.21-10.2,1.17,3.11.94,3.25-9.81-15.62-10-15.49,2.43,5.19,2.21,5.32-9-14.83-9.22-14.7,1.39,3.33,1.17,3.45,6.22,12.23,6,12.35S344.57,296.92,344.34,297s18.73,36,18.51,36.14S351.47,312.87,351.24,313s-6.36-11.26-6.59-11.14.3,1.5.07,1.62.12,1.19-.12,1.31-1.45-2-1.68-1.87-2.72-4.68-3-4.57,9.64,21.18,9.4,21.29-9.52-19.13-9.75-19,16,35.7,15.72,35.81-7.73-15.55-8-15.45,7,17.14,6.78,17.25S340,307.38,339.76,307.48s2.73,7.49,2.49,7.59,4.93,13,4.69,13.08-5.49-11.79-5.73-11.69,2.44,7.34,2.21,7.43,3.66,10.68,3.42,10.77.73,3.56.49,3.65-7.27-17.18-7.51-17.09,4.86,14.41,4.62,14.5-1.39-2-1.63-1.9-6.71-16.8-6.95-16.71-4.51-11.28-4.76-11.2.56,2.84.31,2.92,9.86,30.3,9.61,30.38,0,2.07-.21,2.15-.21,1.43-.46,1.51-.38.94-.63,1-7.11-20.61-7.36-20.54,2.49,9.93,2.24,10-3.88-11-4.12-10.91,1.64,7.46,1.39,7.53-3.23-9.33-3.47-9.26-1.69-4.23-1.94-4.16-3.69-11.87-3.94-11.8,5.69,23.07,5.44,23.13-4.73-16.21-5-16.15-1.25-3.23-1.5-3.17-1.71-5.28-2-5.22,4.4,20.15,4.15,20.2-1.84-5.74-2.09-5.68,1.53,8.95,1.28,9,3.22,17.22,3,17.28-5-20.61-5.25-20.56,3.19,18.05,2.93,18.1-6.56-30-6.81-29.91-.4.19-.65.24,6,34.53,5.72,34.58-3-13-3.23-12.92-1.58-5.9-1.83-5.86-1.56-6.21-1.82-6.17-1.06-3.59-1.31-3.55-2-10.29-2.3-10.25,5.56,40.48,5.31,40.51-.51,1-.77,1.07-5.55-36.37-5.8-36.33,3.53,30.84,3.27,30.87-.73-.91-1-.88-4.3-31.9-4.56-31.87,3.23,33.2,3,33.23-3.22-25.15-3.48-25.12,1,15.53.79,15.55S306.09,320,305.84,320s-.63-1.84-.88-1.82,1,17.93.7,17.95-.7-1.87-1-1.85-1.7-17.35-2-17.33-.81-6-1.07-6,.31,13.25.05,13.26-1.09-12.57-1.35-12.56,1.2,38.13.94,38.14-1.15-14.1-1.41-14.09-.66-3.36-.92-3.35-.17,15.35-.42,15.36-1-18.93-1.23-18.93-.4,9.77-.66,9.77-.51,10.87-.77,10.87-.64-6-.9-6-.41-32.89-.66-32.89-.62,17.34-.87,17.33-.9,21.35-1.16,21.35-.59-1.81-.85-1.81.27-29.73,0-29.73-.75,8.42-1,8.41,0-11.51-.27-11.52-1.2,16-1.46,16-.68,2.8-.94,2.79.39-15.36.13-15.38-1.87,21.37-2.13,21.36.21-10.86-.05-10.88,1.27-22.68,1-22.7S283,346,282.69,346s.56-13,.31-13.07-.5-.54-.75-.57-1.49,9.11-1.74,9.08.64-11.35.38-11.37-2.37,15.91-2.63,15.88-.44-1.59-.69-1.62,1.64-17.66,1.38-17.69,1.46-14.67,1.21-14.71.38-5.69.12-5.73-6,38.46-6.3,38.42-1,2.64-1.29,2.6,1.34-12.4,1.08-12.44,2-15.61,1.77-15.65.89-7.9.64-7.95-2.66,12.5-2.91,12.45-3.43,15.78-3.69,15.74,1.63-11.66,1.38-11.7,2.26-14.11,2-14.16-1.49,5.13-1.74,5.08-4.66,19.8-4.92,19.75,2-12.07,1.77-12.13.78-5.82.53-5.88,2.95-14.93,2.7-15-7.4,29.52-7.66,29.46-.92,1.36-1.17,1.3-.43-.68-.68-.75-3.47,11.12-3.72,11.06,1.05-6.52.8-6.59.73-5,.48-5.1,3.95-16.38,3.7-16.45S255.22,344.05,255,344s6-22.76,5.71-22.84,5.13-18.92,4.88-19-5.62,17.16-5.87,17.09-8.22,24.69-8.46,24.61.56-3.92.32-4-1.75,3.33-2,3.25,1.14-5.47.89-5.55-.5-.43-.74-.51,8.06-25.11,7.82-25.19-11.75,31.79-12,31.71,3.72-12.22,3.47-12.31,5-15.15,4.73-15.24,1.29-4.79,1.05-4.88-1.64,3-1.88,2.94-6.3,14.81-6.54,14.71-1.84,3.08-2.08,3,1.19-4.51.95-4.6,10.79-27.6,10.55-27.7-8.36,18.91-8.6,18.81-8.06,17.52-8.3,17.42,13-31.42,12.78-31.52-2.71,5.08-2.95,5-.26-.51-.5-.61,3.84-9.43,3.61-9.54-15.27,31.76-15.5,31.65-3.5,5.95-3.74,5.84,5.83-13.56,5.6-13.67,12.42-26.56,12.19-26.68-1.27,1.72-1.5,1.6-3.35,5.77-3.58,5.65-15,28.24-15.28,28.12,2.52-6.17,2.29-6.29,11.75-23.32,11.53-23.44-14.41,25.74-14.63,25.62,7.41-14.76,7.18-14.88-9,15.07-9.22,15,6.59-12.89,6.37-13-9.08,14.73-9.31,14.6,10.54-19.29,10.31-19.42S224.24,326,224,325.89s12.27-21.58,12-21.71-14.39,22.66-14.61,22.53,7.53-13.36,7.31-13.49-2.06,2.27-2.28,2.13,14.57-23.83,14.35-24-14.34,21.44-14.56,21.3,13.55-21.57,13.33-21.71,0-.62-.24-.76-17.79,25.6-18,25.46,2.7-4.95,2.49-5.09,8-12.43,7.79-12.58-13.49,18.33-13.7,18.18-.81.11-1,0,9.91-14.63,9.7-14.78-16.35,21.35-16.56,21.2-1.34.69-1.54.53,5.44-8.28,5.24-8.43-.45-.4-.66-.56-5.37,5.9-5.57,5.74,12.78-17.19,12.57-17.35-11.31,13.28-11.51,13.12,5.22-7.41,5-7.57,1.53-2.75,1.33-2.91-.57-.17-.77-.33,15.42-19,15.23-19.17-27.72,31.6-27.92,31.43,8.49-10.73,8.29-10.9,10.69-12.93,10.5-13.1-5.91,5.89-6.1,5.71-12.82,13.32-13,13.15,12.06-14,11.87-14.18,1.95-2.83,1.76-3-.55-.15-.73-.32-16.48,16.39-16.67,16.21,3.86-4.89,3.68-5.07-4.56,3.73-4.75,3.55,21.87-22.68,21.69-22.87,3.69-4.22,3.51-4.4-18.08,16.94-18.26,16.75,19.84-19.7,19.66-19.89-13,11.69-13.15,11.5-17,15.07-17.16,14.88,6.91-7.2,6.74-7.39-1,.1-1.16-.09,8.22-8.09,8.05-8.29,14.83-13.63,14.66-13.83S193.16,298.92,193,298.72s-5.39,3.77-5.56,3.57,3.73-4,3.57-4.2,4.61-4.62,4.44-4.82-3.64,2.21-3.81,2,25.21-21,25.05-21.17-32,24.77-32.19,24.57,6.33-5.77,6.18-6-7.81,5.2-8,5,32.65-25.46,32.5-25.66-8.66,5.95-8.81,5.74,8.59-6.83,8.44-7-15.92,11-16.07,10.78,11.35-8.67,11.2-8.88-15,10-15.18,9.77,11.05-8.23,10.9-8.45S179.32,291.24,179.17,291s2.66-2.58,2.51-2.79,31.85-21.59,31.71-21.8,1.14-1.16,1-1.38-14.94,9-15.08,8.82-2,.67-2.13.46,14.68-9.56,14.55-9.78-6.62,3.56-6.76,3.34,2.89-2.19,2.76-2.41-1.75.56-1.88.34-23.15,12.73-23.28,12.51,9.35-5.93,9.22-6.15-2,.5-2.12.27-1.77.35-1.89.12-16.58,8.17-16.7,7.94,12.21-7.13,12.09-7.36,15.29-8.46,15.17-8.69-9,4-9.16,3.8-4.13,1.44-4.25,1.21,25.47-12.87,25.35-13.11-39.05,18.06-39.16,17.82,20-10,19.88-10.21-18.89,8-19,7.78,20.73-9.92,20.63-10.15-10.39,4-10.5,3.75,17.53-8.06,17.43-8.29-9.46,3.48-9.56,3.24,2.82-1.68,2.72-1.91-22,8.24-22.14,8,30.58-12.56,30.49-12.8-8.14,2.67-8.23,2.43-8.32,2.58-8.41,2.34-10.3,3.16-10.39,2.91-8.4,2.31-8.49,2.07,3.71-2,3.63-2.24,8.35-3.48,8.27-3.72-6.56,1.52-6.64,1.28,26.18-9,26.11-9.19-6.29,1.5-6.36,1.26,3.14-1.43,3.07-1.67,10.17-3.41,10.1-3.65-2.65.38-2.72.13-31.44,8.19-31.51,7.94,17.2-5.19,17.13-5.44,17.09-4.87,17-5.12.85-.56.79-.81-34.62,7.91-34.68,7.66-5.19.55-5.25.3,1.28-1,1.22-1.22,12.54-3.33,12.48-3.58-15.26,2.56-15.31,2.31,18.44-4.3,18.39-4.55-3.59.14-3.64-.11,23.24-4.72,23.19-5-38.56,6.23-38.61,6,19.85-3.91,19.8-4.16,15.58-2.92,15.54-3.17-12,1.37-12.05,1.11,8-1.59,8-1.84-24.6,2.77-24.63,2.51,19.61-3,19.58-3.25-24,2.26-24,2,31.81-4,31.79-4.24-7.35.32-7.38.06-26.25,1.88-26.27,1.62,5-1.06,5-1.32-4.36-.3-4.37-.56,35.13-2.91,35.12-3.17,1.08-.43,1.07-.69-6.71,0-6.72-.29-27,.67-27,.41-2.39-.56-2.4-.82-5.55-.51-5.55-.77,2.25-.73,2.25-1,41.61-1,41.61-1.27-16.13-.34-16.13-.6-24.16-.67-24.15-.92,16.45-.41,16.45-.66,21.18,0,21.19-.29-13.81-.81-13.81-1.06-27.44-1.58-27.43-1.84,23,.42,23,.16-18.1-1.53-18.09-1.79,5.25-.32,5.27-.58,10.73.16,10.75-.09,7.33,0,7.35-.2,12.07.6,12.09.34-3.05-.67-3-.93,3.31,0,3.33-.31-15.34-2.1-15.31-2.36-13.42-2.13-13.39-2.38-3.67-1.09-3.64-1.35-2.67-1-2.64-1.26,4.56,0,4.6-.26,29.19,3.88,29.23,3.62-12.6-2.43-12.56-2.69,4.53.28,4.58,0-25.13-5-25.08-5.22,25.32,4.08,25.37,3.83,7.13.94,7.18.69-25-5.52-24.94-5.77,17.39,3.09,17.44,2.84-24.47-5.89-24.41-6.14,9.05,1.4,9.1,1.15,4.5.47,4.56.22,18.16,3.92,18.22,3.67,3,.35,3.06.1-29.5-8.19-29.43-8.44,14.24,3.25,14.31,3-8.82-3-8.75-3.26-11.26-3.87-11.19-4.12,39.35,11.06,39.42,10.82-6.37-2.33-6.3-2.58-34.08-11.21-34-11.46,3.12.29,3.2.05-2-1.36-1.89-1.61,38.13,12.37,38.21,12.13-26-9.55-25.93-9.79,16.08,5.19,16.17,4.94-20.1-7.92-20-8.16,25.21,8.9,25.3,8.66-15.6-6.5-15.5-6.74,10,3.41,10.14,3.17-18.23-7.91-18.13-8.15,28.73,11.29,28.83,11.05-11.71-5.38-11.61-5.62,6.61,2.36,6.72,2.12-24.6-11.38-24.5-11.61,29.57,12.71,29.68,12.48-4-2.27-3.89-2.51-22.95-11.3-22.84-11.53,16.91,7.47,17,7.24-18.31-9.53-18.2-9.76,20.16,9.39,20.27,9.16-19.37-10.41-19.26-10.64,8,3.45,8.11,3.22,3.94,1.46,4.07,1.23-9.76-5.88-9.64-6.1S208.86,187.33,209,187.1,184.63,173,184.75,172.8s5.62,2.54,5.75,2.31-8-5.28-7.89-5.5,25.78,14.53,25.91,14.31S178.16,165.21,178.3,165s34.37,20.27,34.5,20-5.92-4.11-5.79-4.32-18.84-12.41-18.7-12.63-8.6-6.22-8.46-6.44,32.66,20.59,32.81,20.37-6-4.44-5.88-4.65,2.79,1.37,2.93,1.15-22.14-15.69-22-15.9,24.48,16.34,24.63,16.13-10.87-8.17-10.72-8.38-9.12-7.17-9-7.38,6.56,4.09,6.71,3.88,15.36,10.78,15.52,10.57-32.65-25.1-32.5-25.31,32.09,23.73,32.25,23.53-18.17-14.63-18-14.83,10.45,7.54,10.61,7.34,7.37,5.32,7.53,5.12,3.48,2.32,3.64,2.12-29.42-24.77-29.26-25-2.73-3.13-2.56-3.33,2.95,1.62,3.11,1.42,10.33,8.05,10.5,7.86-2.81-3.2-2.64-3.4,6.85,5.3,7,5.11,16.35,14,16.52,13.84-3.84-4-3.67-4.2S196.74,148,196.92,147.8s9.39,8,9.56,7.81,14.16,12.79,14.34,12.6-4.31-4.71-4.13-4.89,3.74,3.05,3.92,2.87,2.13,1.56,2.32,1.38-19.17-19.91-19-20.09,17.17,16.76,17.36,16.58,1.76,1.24,1.95,1.06-23.08-24.88-22.89-25.06,22.79,23.43,23,23.25,3.09,2.75,3.28,2.58-19.14-21.59-19-21.76,4.71,4.38,4.9,4.21-12.92-15.4-12.72-15.57,11.86,12.57,12.06,12.4,3.3,3,3.49,2.82,2.1,1.67,2.3,1.51-10.23-13-10-13.17,16.41,18.92,16.61,18.76,5.44,6,5.64,5.81.66.2.86,0-9-12-8.77-12.11,4.51,5,4.72,4.83-7.25-10.14-7-10.3,6.27,7.39,6.48,7.23-8.09-11.58-7.88-11.73S233.2,158.14,233.41,158s-.46-1.3-.26-1.45-3.86-6.08-3.65-6.23-11.65-17.26-11.44-17.41-5.55-9-5.34-9.15,13.48,18.47,13.7,18.32,5.32,7,5.53,6.82-15.79-24.49-15.58-24.64,6,8,6.26,7.88S236.81,153,237,152.82s-20.54-32.92-20.32-33.06,13.81,20.7,14,20.56-4.09-7.54-3.87-7.67-2.45-5.09-2.23-5.22,9.8,15.13,10,15-2.57-5.27-2.35-5.4,7.11,11.15,7.33,11-3.16-6.36-2.94-6.49,2.59,3.62,2.82,3.49-10.4-19.56-10.18-19.69,8.41,14.08,8.63,14,8.27,14.28,8.5,14.15-7.2-14.33-7-14.45,7.69,13.63,7.92,13.51-19.34-38.33-19.11-38.45,6.64,11.63,6.87,11.51,4.5,7.75,4.73,7.64,6.54,12.15,6.77,12S234.74,119.58,235,119.47s.71.1,1,0,5.67,10.72,5.91,10.61,10.39,21.38,10.62,21.27-15.28-34.77-15.05-34.88,12.08,25.7,12.31,25.6-6.27-15.49-6-15.59-6.52-16.6-6.29-16.7,12.79,28.7,13,28.6-7.29-18.84-7.06-18.94,9.11,20.9,9.35,20.8-.05-1.32.19-1.41-5.31-14.8-5.07-14.9,3.8,8.4,4,8.3.9,1,1.14.9-6.78-19.76-6.54-19.85,4.08,9.48,4.32,9.39.35-.67.59-.75,9.62,26,9.87,26-2.53-8.58-2.28-8.66-4.86-15.94-4.61-16-1.19-5.37-.94-5.45,9.65,28.39,9.9,28.32-6.42-21.86-6.17-21.94,1.28,2.42,1.53,2.35-5-18.45-4.72-18.53,5.07,15.17,5.32,15.1-1.5-7.18-1.25-7.25,6,19.49,6.26,19.42-8-31.31-7.77-31.38,3.55,10.92,3.8,10.85,8.15,29.34,8.4,29.28-2.91-13.2-2.66-13.26-4.58-20.76-4.33-20.82.68.25.93.19S266.73,125,267,124.91s3.08,11.43,3.34,11.38-2.42-13.12-2.17-13.18,3.09,12.13,3.34,12.08-.4-4.13-.14-4.18.88,2.07,1.13,2,.55.5.81.46-.38-4.47-.12-4.52,1.95,8.24,2.21,8.2-5.42-33.87-5.17-33.92,3.13,15,3.38,14.91-2-15.84-1.73-15.88,2.85,14.39,3.11,14.35-1.38-13.12-1.13-13.16,5.29,33.05,5.55,33-3.28-27.5-3-27.54,4.2,28,4.46,28-3.81-34.58-3.55-34.61,1.44,7,1.7,7,.95,3.28,1.21,3.25.95,3.7,1.21,3.67.43-1.2.68-1.22.68,1.31.93,1.29,2.21,19.56,2.47,19.54-1.73-27.29-1.47-27.31-.06-8.85.2-8.87,1.49,12.73,1.75,12.71-.2-12.68.06-12.7.58-1.09.84-1.1.94,6.19,1.2,6.18,1.54,22,1.8,22-.34-22.57-.08-22.58,1.4,26.19,1.66,26.18.39-2.62.65-2.62.25-12,.51-12,.86,26.55,1.12,26.55.2-31.6.46-31.6S294.74,130,295,130s.48-3.64.74-3.64.33,11.87.59,11.87.76-19.56,1-19.56.3,9.32.55,9.33.7-7.4,1-7.4.27,6.71.53,6.72S301,99.17,301.3,99.18s-.18,17,.08,17,.37,3.11.63,3.13-.59,18.48-.34,18.5.31,1.63.56,1.65,2.62-30.58,2.88-30.56.7-1.41,1-1.39S303.74,142,304,142.06s2.74-25.87,3-25.84,1.77-12.58,2-12.56S306.92,130,307.18,130s4-32,4.22-31.95-4.23,42.21-4,42.24,3.63-26.47,3.88-26.43.9-2.61,1.16-2.57-1.23,13.44-1,13.47-.07,4,.19,4,1.66-8.07,1.92-8,3.18-17.32,3.44-17.28.95-2,1.2-1.93-1.35,12-1.09,12.07-3.53,23.81-3.28,23.86,1.87-8.09,2.13-8.05,4.58-22.17,4.84-22.12-2.16,14.47-1.9,14.52-3.81,21.85-3.55,21.9.59-1,.84-.93,4.85-21.08,5.1-21-2.86,15.62-2.61,15.67,2.19-7.84,2.44-7.78-2,10.92-1.78,11,3.16-11.56,3.41-11.5,1.52-4.19,1.77-4.12-4,18.13-3.78,18.19,4.89-17.41,5.14-17.34-3.82,16.4-3.57,16.47,7.37-25.69,7.62-25.62-2.62,11.56-2.37,11.63-2.67,11.16-2.42,11.23,10.65-35,10.9-35-4.27,16.59-4,16.66-.15,2.32.1,2.39,4.33-12.11,4.58-12-6.34,21.88-6.1,22,1.83-4.09,2.07-4,5.39-14.63,5.64-14.54-8.63,27.18-8.38,27.26,4.12-10.6,4.36-10.52,8.82-23.44,9.07-23.35,0,1.87.25,2-5.21,16-5,16,6.05-14.6,6.29-14.51-.79,3.82-.55,3.91-6.33,17.85-6.09,17.94,5.73-13.09,6-13-1.93,6.28-1.7,6.38-.32,2.17-.09,2.27-.19,1.8,0,1.9,9.57-21,9.81-20.94S338,144.94,338.25,145s13.05-28.4,13.29-28.29-10.11,23.88-9.88,24,6.46-13,6.69-12.88,4.47-8.28,4.7-8.17S340.8,146.87,341,147s17.32-34.9,17.55-34.79-11,23.84-10.74,23.95-3,7.06-2.75,7.18,5.6-10.07,5.83-9.95-10,20.46-9.75,20.58,9.95-18.19,10.18-18.07-1.1,3.13-.87,3.25-6.78,13.54-6.55,13.66,4.36-7.15,4.59-7,9.32-15.8,9.54-15.68,7.94-12.87,8.16-12.74-10.58,19.7-10.36,19.83-.55,2-.33,2.09-5.95,11-5.73,11.12-.28,1.27-.06,1.4,20.13-32.14,20.35-32-3.95,7.6-3.73,7.73-18,29.76-17.81,29.9,23.72-36.44,23.94-36.3-7.61,12.94-7.39,13.08-3.29,6-3.08,6.15,7.74-10.67,8-10.52-17.17,26.41-17,26.56,20-28.36,20.17-28.21,0,1,.24,1.19-10.82,16.37-10.61,16.52-8.4,12.54-8.19,12.69,1.62-1.58,1.83-1.42.46,0,.67.19,2-2,2.17-1.81,5.91-7.1,6.12-6.94-.26,1.12-.06,1.28-1.88,3.18-1.68,3.33,5.9-6.72,6.1-6.56,6.06-6.73,6.26-6.57-18,23-17.76,23.12,10.6-12.26,10.8-12.1-.95,1.89-.76,2.06-3.24,4.54-3.05,4.71,19.4-21.86,19.6-21.69-.26,1.25-.07,1.42,1.39-.62,1.58-.45-18.31,21.33-18.12,21.5,17.86-19,18.05-18.79-5.71,7.1-5.52,7.27-14.67,16.47-14.48,16.65,26.83-27.66,27-27.48-30.24,32.34-30.05,32.52,7.08-6.73,7.26-6.55,18-17.54,18.17-17.36-22.82,23.56-22.63,23.74,3.25-2.67,3.43-2.49,20.15-18.92,20.33-18.73,4.36-3.34,4.54-3.15-15.12,15.09-14.94,15.27-9.44,9.41-9.26,9.6,17.94-15.87,18.12-15.67S377.39,164,377.56,164.23,397.85,146.83,398,147s-10.42,10-10.25,10.16,6.88-5.22,7.05-5-13.73,12.45-13.56,12.65-12.41,11-12.24,11.2,33.7-27.35,33.87-27.15S375.81,171.72,376,171.92s7.9-5.8,8.06-5.6,21.83-16.61,22-16.4-10.55,9-10.39,9.25-15.86,12.86-15.7,13.06,17.24-12.45,17.39-12.24-8.67,7.15-8.51,7.36-5.8,4.86-5.65,5.07,8.26-5.4,8.41-5.19-7.46,5.92-7.31,6.13-8.09,6.18-7.94,6.39,33.06-22.23,33.21-22-33.34,23.31-33.2,23.53,21.23-13.66,21.37-13.45-12.51,8.84-12.37,9.06-5.81,4.25-5.68,4.47,19.86-12.1,20-11.88,10.32-5.75,10.45-5.53-12.16,8.19-12,8.41-14.56,9.37-14.43,9.59,2-.73,2.17-.51,7.91-4.1,8-3.88,2.84-1,3-.83-6.68,4.32-6.55,4.55,16.26-8.43,16.39-8.2-16,9.29-15.85,9.52,18.27-9.17,18.39-9-4,2.78-3.9,3,6.86-2.85,7-2.63-3.54,2.48-3.42,2.71-8.6,4.88-8.49,5.11-16.44,8.49-16.33,8.72,2.78-.9,2.89-.66,16.33-7.12,16.44-6.88-8.93,4.63-8.82,4.86,16.55-6.84,16.66-6.6,11.41-4.3,11.51-4.07-19,8.82-18.9,9.06-19.22,8.56-19.12,8.8-1.43,1-1.33,1.21,28.11-10.79,28.2-10.55-13.37,5.82-13.28,6.06,20.24-7.17,20.33-6.93S393,195,393.08,195.25s.71.19.8.43-.76.72-.67,1,7.28-2,7.36-1.81,12.22-3.57,12.3-3.33-3.33,1.7-3.25,1.94-23.36,8-23.29,8.22,13.93-3.92,14-3.67,4.67-.9,4.74-.66,12.21-3,12.28-2.76-32.1,9.66-32,9.91,14.47-3.59,14.54-3.34,21.54-5.22,21.61-5-30.65,8.49-30.59,8.74,24.32-5.61,24.38-5.36-14.78,4.11-14.72,4.37,15.65-3.13,15.71-2.88-.76.77-.71,1-29.39,6.85-29.34,7.1,35.13-6.83,35.18-6.58-15.16,3.61-15.11,3.86-18.73,4-18.68,4.27-.25.4-.21.65,17.16-2.58,17.2-2.33-1.83.79-1.79,1,22.8-3,22.84-2.79-38.51,6.28-38.47,6.54,4.5-.28,4.53,0,3.83-.12,3.86.14-3.24.8-3.2,1,3.25,0,3.28.27,13.51-1,13.54-.76-21.37,2.59-21.34,2.84,22.31-1.63,22.33-1.38,16.3-.79,16.32-.53-4.27,1-4.26,1.22-11.65,1.37-11.63,1.62-20.37,1.67-20.35,1.93,29-1,29-.78,11.39.13,11.4.39-12.19,1.07-12.18,1.33,11.1.32,11.1.57-23.53,1.05-23.52,1.31-18,.63-18,.89S394.64,224.24,394.64,224.5Z"/><path class="cls-4" d="M399.47,225.61c0,8.41-4.59,15.22-7,22.94-2.44,7.88-4.5,14.79-9.07,21.63s-2.6,20.16-8.87,25.6S360.92,308.29,353.47,312c-7.21,3.61-18.85-1-27,.85-7.81,1.81-16.11-4.37-24.54-4.37S284,319.85,276.17,318c-8.16-1.9-10.42-18.72-17.63-22.34-7.45-3.74-23.1,5.31-29.22,0s-7.79-16.5-12.31-23.27-6-15.16-8.46-23-9.46-15.39-9.46-23.8-1.53-18.75.85-26.46c2.44-7.88,13.4-12.93,18-19.77s8-15.18,14.24-20.62c6.11-5.3,16.76-3.84,24.22-7.58,7.21-3.62,11.55-16.47,19.72-18.37,7.81-1.81,17.39,3,25.82,3a108,108,0,0,1,24.4,3.17,103.13,103.13,0,0,1,23.08,8.34c7.46,3.74,19.47,2.34,25.59,7.64s6.43,17.64,10.95,24.41,14.6,12.19,17,20.07C405.35,207.15,399.47,217.2,399.47,225.61Z"/><path class="cls-5" d="M384,240.55c3,50.83-37.41,89-90.18,83-52.78-6.37-93.14-44.87-90.19-83.89s43.33-77,90.19-82.84C340.67,151.27,381.05,189.72,384,240.55Z"/><rect class="cls-6" x="1.97" y="314.67" width="500" height="385.33"/><rect class="cls-3" x="-0.85" y="487.05" width="502.82" height="212.95"/><rect class="cls-7" y="238.91" width="500" height="75.68"/><path class="cls-7" d="M2.7,240.34a43.32,43.32,0,0,1,30.26-20c-3.84.3-6.18,5-5.13,8.69s4.48,6.27,8.07,7.66c1.78.69,3.9,1.12,5.51.08,1.18-.76,1.79-2.13,2.51-3.34a16.1,16.1,0,0,1,18.4-6.84c-1.4-1.15-3.7-.44-4.68,1.08a6.16,6.16,0,0,0-.27,5.23,11.12,11.12,0,0,0,11.17,7.23c6.55-.6,10.93-6.71,15.32-11.62s11.62-9.27,17.15-5.71a9,9,0,0,0,6.07,16.8c3.79-1,6.48-4.22,9.62-6.55A22.19,22.19,0,0,1,132.45,229c-2.4-1.15-5.43,1.12-5.66,3.77s1.67,5.13,4,6.38a10.47,10.47,0,0,0,11.85-1.65c1.61-1.55,2.67-3.58,4-5.4a44,44,0,0,1,8.15-7.91c3.36-2.72,8.34-5.46,11.59-2.61-2.49,1.65-2.75,5.41-1.37,8.05s3.93,4.45,6.39,6.14c1.94,1.34,4.27,2.74,6.51,2a8.21,8.21,0,0,0,3.2-2.46c4.48-4.7,10.6-9,17-7.72a6.7,6.7,0,0,0,3.76,12.06c5,.2,8.36-4.82,12-8.27a23.19,23.19,0,0,1,16.84-6.19,9,9,0,0,0,6.9,14.79"/><path class="cls-7" d="M245.59,239.34a43.34,43.34,0,0,1,30.26-20c-3.83.3-6.18,5-5.13,8.69s4.48,6.27,8.07,7.66c1.78.69,3.91,1.12,5.52.08,1.18-.76,1.79-2.13,2.51-3.34a16.1,16.1,0,0,1,18.4-6.84c-1.4-1.15-3.71-.44-4.68,1.08a6.12,6.12,0,0,0-.27,5.23,11.1,11.1,0,0,0,11.16,7.23c6.56-.6,10.94-6.71,15.32-11.62s11.63-9.27,17.16-5.71a9,9,0,0,0,6.06,16.8c3.8-1,6.48-4.22,9.63-6.55A22.19,22.19,0,0,1,375.35,228c-2.41-1.15-5.44,1.12-5.67,3.77s1.68,5.13,4,6.38a10.45,10.45,0,0,0,11.84-1.65c1.62-1.55,2.67-3.58,4-5.4a44,44,0,0,1,8.15-7.91c3.35-2.72,8.33-5.46,11.58-2.61-2.48,1.65-2.74,5.41-1.36,8.05s3.93,4.45,6.38,6.14c1.95,1.34,4.27,2.74,6.52,2a8.29,8.29,0,0,0,3.2-2.46c4.47-4.7,10.59-9,17-7.72a6.7,6.7,0,0,0,3.76,12.06c5,.2,8.36-4.82,12-8.27a23.17,23.17,0,0,1,16.84-6.19,9,9,0,0,0,6.9,14.79"/><rect class="cls-3" x="406" y="474" width="94.82" height="25" transform="translate(-21.76 21.23) rotate(-2.62)"/><path class="cls-6" d="M2.7,315.79a89.56,89.56,0,0,1,62.58-41.25c-7.93.62-12.78,10.31-10.6,18s9.26,13,16.68,15.84c3.69,1.42,8.08,2.31,11.4.18,2.45-1.58,3.71-4.41,5.19-6.91C95.41,289,112.13,282.8,126,287.46c-2.89-2.38-7.66-.92-9.67,2.23s-1.78,7.29-.56,10.82a23,23,0,0,0,23.09,14.95c13.55-1.24,22.61-13.87,31.67-24s24.05-19.19,35.49-11.82c-8.25,3.91-12.61,14.49-9.51,23.08s13.22,13.93,22,11.67c7.85-2,13.4-8.74,19.9-13.55A45.86,45.86,0,0,1,271,292.3c-5-2.38-11.24,2.31-11.71,7.8s3.47,10.6,8.33,13.19a21.63,21.63,0,0,0,24.49-3.41c3.35-3.21,5.52-7.42,8.25-11.17,4.6-6.36,10.75-11.4,16.85-16.35,6.94-5.64,17.23-11.3,24-5.4-5.14,3.41-5.67,11.17-2.83,16.65s8.13,9.18,13.21,12.68c4,2.77,8.83,5.67,13.48,4.17,2.67-.87,4.67-3,6.61-5.09,9.26-9.72,21.91-18.57,35.08-16a13.87,13.87,0,0,0,7.77,25c10.38.41,17.3-10,24.86-17.1a48,48,0,0,1,34.83-12.82A18.63,18.63,0,0,0,488.49,315"/><g class="cls-8"><path class="cls-9" d="M154.42,416.71l6.37-11.87c1.23-2.3,2.67-4.78,4.84-5.39,4.35-1.23,7.24,5.49,11.24,8,6,3.7,12.65-2.79,17.28-8.78s11.25-12.51,17.27-8.88c8.73,5.25,6.21,26.45,15.78,28.37,7,1.4,12.16-10.27,19.19-9.49,4.31.47,7.56,5.57,11.85,6.2,7.35,1.07,11.69-10.66,18.74-13.47,9.59-3.82,20.09,10.07,29.17,4.67,3.24-1.93,5.3-5.88,7.7-9.18,7-9.6,19.33-14.09,28.21-7.3,3.86,3,6.68,7.63,10.33,11s9,5.17,12.62,1.8c1.56-1.46,2.57-3.66,4-5.33,5.21-6.14,13.77-3.38,20.12.78s13.16,9.56,20.14,7.47c5.45-1.62,9.31-7.38,13.54-11.94s10.35-8.22,15.25-4.87c2,1.38,3.47,3.74,5.34,5.39,5.06,4.47,12,3,17.91.54s11.95-5.78,18-4.39,11.45,10.3,8.12,16.81c-1.71,3.34-5,4.79-8,6a261.63,261.63,0,0,1-92.3,17.86c-8.27.08-16.59-.25-24.78,1.21-11.58,2.06-22.75,7.67-34.45,8-10.11.26-20-3.46-30.1-4.51-10.69-1.12-21.43.76-32.16.43-12.79-.38-25.44-3.91-38.24-4.06-20.73-.23-41.59,8.39-61.91,3.28-2.72-.68-5.5-1.67-7.58-4s-3.24-6.17-2.06-9.29"/></g><g class="cls-8"><path class="cls-10" d="M330.71,381.32l-6.37-11.87c-1.23-2.3-2.67-4.78-4.84-5.39-4.35-1.22-7.24,5.49-11.24,8-6,3.7-12.64-2.78-17.28-8.77s-11.25-12.52-17.27-8.89c-8.72,5.25-6.21,26.46-15.78,28.38-7,1.39-12.15-10.27-19.19-9.5-4.3.48-7.56,5.57-11.85,6.2-7.35,1.08-11.69-10.66-18.74-13.47-9.58-3.82-20.09,10.07-29.17,4.67-3.23-1.92-5.3-5.87-7.7-9.17-7-9.61-19.33-14.09-28.21-7.3-3.86,2.95-6.68,7.62-10.33,11s-9,5.17-12.61,1.8c-1.57-1.45-2.58-3.65-4-5.33-5.21-6.14-13.77-3.38-20.12.78S82.86,372,75.88,369.87c-5.44-1.63-9.31-7.38-13.54-11.95S52,349.7,47.09,353.05c-2,1.38-3.47,3.74-5.34,5.4-5.06,4.47-12,3-17.91.53s-11.95-5.78-18-4.39-11.45,10.3-8.12,16.81c1.71,3.34,5,4.8,8,6A261.65,261.65,0,0,0,98,395.24c8.27.07,16.59-.26,24.78,1.2,11.58,2.06,22.75,7.67,34.45,8,10.12.27,20-3.45,30.1-4.51,10.69-1.12,21.44.76,32.16.44,12.8-.39,25.44-3.92,38.24-4.06,20.73-.24,41.59,8.38,61.91,3.28,2.72-.68,5.5-1.68,7.58-4s3.24-6.18,2.06-9.3"/></g><path class="cls-4" d="M200.5,438.61c-5.64-3.48-11.31-7.4-17-11.66-17.26-14-26.27-32.24-18.54-41.35,15.85-21.53,34.81-53.42,46.74-84.19,6.37-14.72,13.45-23.31,21.56-16.05,2.86,2.29,6,4.79,9.29,7.43,9.56,8.58,23.68,24.12,24.21,35.35.64,24.86-10.77,57.66-24,93.47C236.43,438.82,217.47,450,200.5,438.61Z"/><path class="cls-11" d="M352.36,486.5a1359.22,1359.22,0,0,1-213.54,0L67.93,365.79a2263.65,2263.65,0,0,0,355.32,0Z"/><path class="cls-3" d="M6.42,478.11c4.51-7.7,9.2-15.61,16.4-20.88s17.61-7.2,25-2.19,10.25,15.61,18.62,18.57c9,3.18,17.84-4.33,24.89-10.74s17.75-12.45,25.39-6.76c3.44,2.56,5.19,7,8.75,9.33,8,5.33,18.06-2.45,24.55-9.53s17-14.53,24.63-8.72c-6.8,2.33-6.74,13-1.42,17.83s13.12,5.43,20.31,5.77L234,472.73c9.7.46,19.6.9,28.91-1.84,6.56-1.92,12.55-5.35,18.47-8.75l40.2-23.08c-5.68,6.08-4.05,16.72,2.08,22.35s15.33,6.84,23.48,5.16,15.53-5.88,22.75-10c-5.13,1.6-4.92,10-.33,12.82s10.75,1,14.93-2.36,7-8.09,10.59-12.12,8.36-7.6,13.73-7.37c8.81.39,14.2,10.31,22.6,13,7.32,2.31,15-1.35,22.31-3.66a65.29,65.29,0,0,1,35.66-1C493.65,457,498,458.65,501,462s4,8.72,1.27,12.26q-39.11,5.89-78.41,10.28a2133.51,2133.51,0,0,1-274.07,12.65q-70.86-1.24-141.54-7.06c-3.74-.3-8-.88-10.16-3.93s.6-8.75,4.07-7.31"/><path class="cls-12" d="M220.67,246.66c-4.15,18.57,3.17,30.37,14.87,33s23.34-4.94,27.49-23.52-5-26.22-16.71-28.83S224.82,228.08,220.67,246.66Z"/><g id="hår"><ellipse class="cls-13" cx="244.08" cy="277.39" rx="2.47" ry="2.64" transform="translate(-87.76 439.89) rotate(-74.75)"/><ellipse class="cls-13" cx="246.88" cy="277.7" rx="2.47" ry="2.64" transform="translate(-85.99 442.82) rotate(-74.75)"/><ellipse class="cls-13" cx="252.17" cy="270.07" rx="2.47" ry="2.64" transform="translate(-74.73 442.3) rotate(-74.75)"/><ellipse class="cls-13" cx="228.69" cy="232.46" rx="2.47" ry="2.64" transform="translate(-62.94 86.56) rotate(-18.89)"/><ellipse class="cls-13" cx="226.08" cy="235.6" rx="2.47" ry="2.64" transform="translate(-64.1 85.88) rotate(-18.89)"/><ellipse class="cls-13" cx="229.59" cy="234.99" rx="2.47" ry="2.64" transform="translate(-63.71 86.98) rotate(-18.89)"/><ellipse class="cls-13" cx="222.3" cy="233.8" rx="2.47" ry="2.64" transform="translate(-63.72 84.56) rotate(-18.89)"/><ellipse class="cls-13" cx="225.45" cy="232.12" rx="2.47" ry="2.64" transform="translate(-63 85.49) rotate(-18.89)"/><ellipse class="cls-13" cx="229.28" cy="234.68" rx="2.47" ry="2.64" transform="translate(-63.63 86.87) rotate(-18.89)"/><ellipse class="cls-13" cx="226.74" cy="233.75" rx="2.47" ry="2.64" transform="translate(-63.46 85.99) rotate(-18.89)"/><ellipse class="cls-13" cx="220.17" cy="240.38" rx="2.47" ry="2.64" transform="translate(-65.97 84.23) rotate(-18.89)"/><ellipse class="cls-13" cx="227.48" cy="232.68" rx="2.47" ry="2.64" transform="translate(-63.08 86.18) rotate(-18.89)"/><ellipse class="cls-13" cx="230.63" cy="231" rx="2.47" ry="2.64" transform="translate(-62.36 87.11) rotate(-18.89)"/><ellipse class="cls-13" cx="225.35" cy="239.27" rx="2.47" ry="2.64" transform="translate(-65.32 85.84) rotate(-18.89)"/><ellipse class="cls-13" cx="220.9" cy="236.72" rx="2.47" ry="2.64" transform="translate(-64.74 84.26) rotate(-18.89)"/><ellipse class="cls-13" cx="224.41" cy="236.1" rx="2.47" ry="2.64" transform="translate(-64.35 85.37) rotate(-18.89)"/><ellipse class="cls-13" cx="247.11" cy="272.25" rx="2.47" ry="2.64" transform="translate(-80.57 439.03) rotate(-74.75)"/><ellipse class="cls-13" cx="252.21" cy="273.64" rx="2.47" ry="2.64" transform="translate(-78.14 444.97) rotate(-74.75)"/><ellipse class="cls-13" cx="248.76" cy="274.99" rx="2.47" ry="2.64" transform="translate(-81.99 442.63) rotate(-74.75)"/><ellipse class="cls-13" cx="251.41" cy="276.67" rx="2.47" ry="2.64" transform="translate(-81.67 446.43) rotate(-74.75)"/><ellipse class="cls-13" cx="248.54" cy="278.93" rx="2.47" ry="2.64" transform="translate(-85.95 445.33) rotate(-74.75)"/><ellipse class="cls-13" cx="243.7" cy="277.17" rx="2.47" ry="2.64" transform="translate(-87.83 439.36) rotate(-74.75)"/><ellipse class="cls-13" cx="246.35" cy="278.86" rx="2.47" ry="2.64" transform="matrix(0.26, -0.96, 0.96, 0.26, -87.5, 443.16)"/><ellipse class="cls-13" cx="243.49" cy="281.12" rx="2.47" ry="2.64" transform="matrix(0.26, -0.96, 0.96, 0.26, -91.79, 442.06)"/><ellipse class="cls-13" cx="239.02" cy="279.58" rx="2.47" ry="2.64" transform="translate(-93.59 436.62) rotate(-74.75)"/><ellipse class="cls-13" cx="241.82" cy="279.88" rx="2.47" ry="2.64" transform="translate(-91.82 439.54) rotate(-74.75)"/><ellipse class="cls-13" cx="221.75" cy="247.46" rx="2.47" ry="2.64" transform="translate(-68.17 85.12) rotate(-18.89)"/><ellipse class="cls-13" cx="225.32" cy="244.82" rx="2.47" ry="2.64" transform="translate(-67.12 86.13) rotate(-18.89)"/><ellipse class="cls-13" cx="223.62" cy="246.9" rx="2.47" ry="2.64" transform="translate(-67.89 85.69) rotate(-18.89)"/><ellipse class="cls-13" cx="245.16" cy="279.33" rx="2.47" ry="2.64" transform="translate(-88.83 442.36) rotate(-74.75)"/><ellipse class="cls-13" cx="247.16" cy="275.82" rx="2.47" ry="2.64" transform="translate(-83.98 441.7) rotate(-74.75)"/><ellipse class="cls-13" cx="220.66" cy="240.04" rx="2.47" ry="2.64" transform="translate(-65.83 84.37) rotate(-18.89)"/><ellipse class="cls-13" cx="237.82" cy="277.94" rx="2.47" ry="2.64" transform="matrix(0.26, -0.96, 0.96, 0.26, -92.89, 434.25)"/><ellipse class="cls-13" cx="241.63" cy="280.51" rx="2.47" ry="2.64" transform="translate(-92.57 439.83) rotate(-74.75)"/><ellipse class="cls-13" cx="257.5" cy="264.71" rx="2.47" ry="2.64" transform="translate(-65.63 443.49) rotate(-74.75)"/><ellipse class="cls-13" cx="254.97" cy="267.29" rx="2.47" ry="2.64" transform="translate(-69.98 442.95) rotate(-74.75)"/><ellipse class="cls-13" cx="256.48" cy="271.03" rx="2.47" ry="2.64" transform="translate(-72.48 447.16) rotate(-74.75)"/><ellipse class="cls-13" cx="251.8" cy="271.31" rx="2.47" ry="2.64" transform="matrix(0.26, -0.96, 0.96, 0.26, -76.2, 442.86)"/><ellipse class="cls-13" cx="226.58" cy="231.38" rx="2.47" ry="2.64" transform="translate(-62.71 85.81) rotate(-18.89)"/><ellipse class="cls-13" cx="250" cy="225.17" rx="2.47" ry="2.64" transform="translate(-59.43 93.06) rotate(-18.89)"/><ellipse class="cls-13" cx="241.27" cy="232.61" rx="2.64" ry="2.47" transform="translate(-93.87 232.43) rotate(-43.92)"/><ellipse class="cls-13" cx="224.91" cy="230.01" rx="1.74" ry="1.86" transform="translate(-62.35 85.2) rotate(-18.89)"/><ellipse class="cls-13" cx="232.29" cy="227.29" rx="2.47" ry="2.64" transform="translate(-61.07 87.44) rotate(-18.89)"/><ellipse class="cls-13" cx="221.06" cy="248.74" rx="2.47" ry="2.64" transform="translate(-77.08 396.57) rotate(-74.75)"/><ellipse class="cls-13" cx="234.1" cy="223.65" rx="2.47" ry="2.64" transform="translate(-59.8 87.83) rotate(-18.89)"/><ellipse class="cls-13" cx="247.19" cy="228.16" rx="2.47" ry="2.64" transform="translate(-27.15 422.83) rotate(-78.07)"/><ellipse class="cls-13" cx="238.97" cy="277.88" rx="2.47" ry="2.64" transform="translate(-91.99 435.32) rotate(-74.75)"/><ellipse class="cls-13" cx="238.31" cy="280.76" rx="2.47" ry="2.64" transform="translate(-95.26 436.81) rotate(-74.75)"/><ellipse class="cls-13" cx="217.93" cy="247.36" rx="2.47" ry="2.64" transform="translate(-68.35 83.88) rotate(-18.89)"/><ellipse class="cls-13" cx="221.91" cy="243.31" rx="2.47" ry="2.64" transform="translate(-66.82 84.95) rotate(-18.89)"/><ellipse class="cls-13" cx="220.51" cy="241.88" rx="1.74" ry="1.86" transform="translate(-66.43 84.42) rotate(-18.89)"/><ellipse class="cls-13" cx="218.78" cy="240.6" rx="2.47" ry="2.64" transform="translate(-66.11 83.79) rotate(-18.89)"/><ellipse class="cls-13" cx="219.05" cy="238.34" rx="2.47" ry="2.64" transform="translate(-65.36 83.75) rotate(-18.89)"/><ellipse class="cls-13" cx="255.51" cy="230.88" rx="2.64" ry="2.47" transform="translate(-88.66 219.05) rotate(-40.13)"/><ellipse class="cls-13" cx="234.29" cy="231.11" rx="2.64" ry="2.47" transform="translate(-93.8 205.43) rotate(-40.13)"/><ellipse class="cls-13" cx="241.86" cy="229.33" rx="2.47" ry="2.64" transform="translate(-5.46 452.77) rotate(-85.57)"/><ellipse class="cls-13" cx="240.01" cy="225.69" rx="2.47" ry="2.64" transform="translate(-3.54 447.56) rotate(-85.57)"/><ellipse class="cls-13" cx="239.18" cy="229.16" rx="2.47" ry="2.64" transform="translate(-7.76 449.94) rotate(-85.57)"/><ellipse class="cls-13" cx="234.96" cy="233.1" rx="2.47" ry="2.64" transform="translate(-79.13 128.76) rotate(-26.4)"/><ellipse class="cls-13" cx="243.45" cy="226.5" rx="2.47" ry="2.64" transform="translate(-1.16 451.74) rotate(-85.57)"/><ellipse class="cls-13" cx="239.59" cy="229" rx="2.47" ry="2.64" transform="matrix(0.08, -1, 1, 0.08, -7.22, 450.2)"/><ellipse class="cls-13" cx="241.45" cy="227.03" rx="2.47" ry="2.64" transform="translate(-3.55 450.23) rotate(-85.57)"/><ellipse class="cls-13" cx="242.14" cy="228.14" rx="2.47" ry="2.64" transform="translate(-4.01 451.94) rotate(-85.57)"/><ellipse class="cls-13" cx="242.43" cy="231.7" rx="2.47" ry="2.64" transform="translate(-7.29 455.52) rotate(-85.57)"/><ellipse class="cls-13" cx="236.93" cy="223.58" rx="2.47" ry="2.64" transform="translate(-4.27 442.54) rotate(-85.57)"/><ellipse class="cls-13" cx="233.95" cy="236.18" rx="2.47" ry="2.64" transform="translate(-80.61 128.63) rotate(-26.4)"/><ellipse class="cls-13" cx="240.21" cy="223.96" rx="2.47" ry="2.64" transform="translate(-1.63 446.16) rotate(-85.57)"/><ellipse class="cls-13" cx="243.69" cy="227.82" rx="2.47" ry="2.64" transform="translate(-2.27 453.2) rotate(-85.57)"/><ellipse class="cls-13" cx="245.61" cy="226.83" rx="1.74" ry="1.86" transform="translate(0.49 454.2) rotate(-85.57)"/><ellipse class="cls-13" cx="245.18" cy="234.69" rx="2.47" ry="2.64" transform="translate(-7.73 461.02) rotate(-85.57)"/><ellipse class="cls-13" cx="247.81" cy="237.79" rx="2.47" ry="2.64" transform="translate(-8.4 466.5) rotate(-85.57)"/><ellipse class="cls-13" cx="249.01" cy="224.35" rx="2.47" ry="2.64" transform="translate(-73.78 134.1) rotate(-26.4)"/><ellipse class="cls-13" cx="232.33" cy="238.03" rx="2.47" ry="2.64" transform="translate(-81.6 128.11) rotate(-26.4)"/><ellipse class="cls-13" cx="240.88" cy="235.01" rx="2.47" ry="2.64" transform="translate(-57.69 79.74) rotate(-16.82)"/><ellipse class="cls-13" cx="247.17" cy="232.01" rx="2.47" ry="2.64" transform="translate(-77.38 134.08) rotate(-26.4)"/><ellipse class="cls-13" cx="235.98" cy="230.34" rx="2.47" ry="2.64" transform="translate(-11.89 447.84) rotate(-85.57)"/><ellipse class="cls-13" cx="248.39" cy="234.4" rx="2.47" ry="2.64" transform="translate(-78.31 134.87) rotate(-26.4)"/><ellipse class="cls-13" cx="239.14" cy="227.59" rx="2.47" ry="2.64" transform="matrix(0.08, -1, 1, 0.08, -6.23, 448.44)"/><ellipse class="cls-13" cx="239.43" cy="231.15" rx="2.47" ry="2.64" transform="translate(-9.51 452.02) rotate(-85.57)"/><ellipse class="cls-13" cx="248.04" cy="234.13" rx="2.47" ry="2.64" transform="translate(-78.23 134.69) rotate(-26.4)"/><ellipse class="cls-13" cx="237.42" cy="231.68" rx="2.47" ry="2.64" transform="matrix(0.08, -1, 1, 0.08, -11.9, 450.51)"/><ellipse class="cls-13" cx="238.11" cy="232.79" rx="2.47" ry="2.64" transform="matrix(0.08, -1, 1, 0.08, -12.36, 452.22)"/><ellipse class="cls-13" cx="248.91" cy="230.31" rx="2.47" ry="2.64" transform="translate(-76.44 134.67) rotate(-26.4)"/><ellipse class="cls-13" cx="232.9" cy="228.23" rx="2.47" ry="2.64" transform="translate(-12.62 442.82) rotate(-85.57)"/><ellipse class="cls-13" cx="237" cy="225.14" rx="2.47" ry="2.64" transform="translate(-5.76 444.06) rotate(-85.57)"/><ellipse class="cls-13" cx="236.18" cy="228.61" rx="2.47" ry="2.64" transform="translate(-9.98 446.44) rotate(-85.57)"/><ellipse class="cls-13" cx="239.66" cy="232.47" rx="2.47" ry="2.64" transform="translate(-10.61 453.47) rotate(-85.57)"/><ellipse class="cls-13" cx="241.58" cy="231.48" rx="1.74" ry="1.86" transform="translate(-7.86 454.47) rotate(-85.57)"/><ellipse class="cls-13" cx="250.07" cy="226.42" rx="2.47" ry="2.64" transform="translate(-74.59 134.78) rotate(-26.4)"/><ellipse class="cls-13" cx="251.38" cy="222.57" rx="2.47" ry="2.64" transform="translate(-72.74 134.97) rotate(-26.4)"/><ellipse class="cls-13" cx="255.07" cy="225.43" rx="2.47" ry="2.64" transform="translate(-73.63 136.9) rotate(-26.4)"/><ellipse class="cls-13" cx="236.25" cy="222.81" rx="2.47" ry="2.64" transform="translate(-4.13 441.15) rotate(-85.57)"/><ellipse class="cls-13" cx="219.71" cy="252.43" rx="2.47" ry="2.64" transform="translate(-69.89 84.73) rotate(-18.89)"/><ellipse class="cls-13" cx="217.1" cy="255.57" rx="2.47" ry="2.64" transform="translate(-71.05 84.05) rotate(-18.89)"/><ellipse class="cls-13" cx="220.61" cy="254.96" rx="2.47" ry="2.64" transform="translate(-70.66 85.15) rotate(-18.89)"/><ellipse class="cls-13" cx="213.32" cy="253.76" rx="2.47" ry="2.64" transform="translate(-70.67 82.73) rotate(-18.89)"/><ellipse class="cls-13" cx="216.48" cy="252.09" rx="2.47" ry="2.64" transform="translate(-69.95 83.66) rotate(-18.89)"/><ellipse class="cls-13" cx="220.3" cy="254.64" rx="2.47" ry="2.64" transform="translate(-70.58 85.04) rotate(-18.89)"/><ellipse class="cls-13" cx="217.76" cy="253.72" rx="2.47" ry="2.64" transform="translate(-70.41 84.16) rotate(-18.89)"/><ellipse class="cls-13" cx="218.5" cy="252.65" rx="2.47" ry="2.64" transform="translate(-70.03 84.35) rotate(-18.89)"/><ellipse class="cls-13" cx="221.66" cy="250.97" rx="2.47" ry="2.64" transform="translate(-69.31 85.28) rotate(-18.89)"/><ellipse class="cls-13" cx="216.38" cy="259.23" rx="2.47" ry="2.64" transform="translate(-72.27 84.01) rotate(-18.89)"/><ellipse class="cls-13" cx="211.92" cy="256.69" rx="2.47" ry="2.64" transform="translate(-71.69 82.43) rotate(-18.89)"/><ellipse class="cls-13" cx="215.43" cy="256.07" rx="2.47" ry="2.64" transform="translate(-71.3 83.54) rotate(-18.89)"/><ellipse class="cls-13" cx="212.77" cy="267.43" rx="2.47" ry="2.64" transform="translate(-75.12 83.29) rotate(-18.89)"/><ellipse class="cls-13" cx="216.34" cy="264.79" rx="2.47" ry="2.64" transform="translate(-74.07 84.3) rotate(-18.89)"/><ellipse class="cls-13" cx="214.65" cy="266.87" rx="2.47" ry="2.64" transform="translate(-74.84 83.86) rotate(-18.89)"/><ellipse class="cls-13" cx="211.68" cy="260.01" rx="2.47" ry="2.64" transform="translate(-72.78 82.53) rotate(-18.89)"/><ellipse class="cls-13" cx="217.6" cy="251.35" rx="2.47" ry="2.64" transform="translate(-69.65 83.98) rotate(-18.89)"/><ellipse class="cls-13" cx="232.29" cy="252.58" rx="2.64" ry="2.47" transform="translate(-110.23 231.79) rotate(-43.92)"/><ellipse class="cls-13" cx="215.93" cy="249.98" rx="1.74" ry="1.86" transform="translate(-69.3 83.37) rotate(-18.89)"/><ellipse class="cls-13" cx="223.31" cy="247.26" rx="2.47" ry="2.64" transform="translate(-68.02 85.61) rotate(-18.89)"/><ellipse class="cls-13" cx="212.08" cy="268.71" rx="2.47" ry="2.64" transform="translate(-102.96 402.62) rotate(-74.75)"/><ellipse class="cls-13" cx="225.12" cy="243.62" rx="2.47" ry="2.64" transform="translate(-66.75 86) rotate(-18.89)"/><ellipse class="cls-13" cx="212.93" cy="263.28" rx="2.47" ry="2.64" transform="translate(-73.77 83.12) rotate(-18.89)"/><ellipse class="cls-13" cx="225.31" cy="251.08" rx="2.64" ry="2.47" transform="translate(-108.79 204.35) rotate(-40.13)"/><ellipse class="cls-13" cx="232.88" cy="249.3" rx="2.47" ry="2.64" transform="translate(-33.65 462.25) rotate(-85.57)"/><ellipse class="cls-13" cx="231.03" cy="245.66" rx="2.47" ry="2.64" transform="translate(-31.73 457.04) rotate(-85.57)"/><ellipse class="cls-13" cx="230.2" cy="249.13" rx="2.47" ry="2.64" transform="translate(-35.95 459.42) rotate(-85.57)"/><ellipse class="cls-13" cx="225.98" cy="253.07" rx="2.47" ry="2.64" transform="translate(-88.95 126.85) rotate(-26.4)"/><ellipse class="cls-13" cx="230.61" cy="248.97" rx="2.47" ry="2.64" transform="matrix(0.08, -1, 1, 0.08, -35.41, 459.67)"/><ellipse class="cls-13" cx="232.47" cy="247" rx="2.47" ry="2.64" transform="translate(-31.74 459.71) rotate(-85.57)"/><ellipse class="cls-13" cx="233.16" cy="248.11" rx="2.47" ry="2.64" transform="translate(-32.21 461.42) rotate(-85.57)"/><ellipse class="cls-13" cx="233.45" cy="251.67" rx="2.47" ry="2.64" transform="translate(-35.48 465) rotate(-85.57)"/><ellipse class="cls-13" cx="227.95" cy="243.55" rx="2.47" ry="2.64" transform="translate(-32.47 452.02) rotate(-85.57)"/><ellipse class="cls-13" cx="224.97" cy="256.15" rx="2.47" ry="2.64" transform="translate(-90.42 126.73) rotate(-26.4)"/><ellipse class="cls-13" cx="231.23" cy="243.93" rx="2.47" ry="2.64" transform="translate(-29.82 455.64) rotate(-85.57)"/><ellipse class="cls-13" cx="223.36" cy="258" rx="2.47" ry="2.64" transform="translate(-91.41 126.2) rotate(-26.4)"/><ellipse class="cls-13" cx="231.9" cy="254.98" rx="2.47" ry="2.64" transform="translate(-63.85 78) rotate(-16.82)"/><ellipse class="cls-13" cx="227" cy="250.31" rx="2.47" ry="2.64" transform="translate(-40.08 457.31) rotate(-85.57)"/><ellipse class="cls-13" cx="230.16" cy="247.56" rx="2.47" ry="2.64" transform="matrix(0.08, -1, 1, 0.08, -34.43, 457.92)"/><ellipse class="cls-13" cx="230.45" cy="251.12" rx="2.47" ry="2.64" transform="translate(-37.7 461.5) rotate(-85.57)"/><ellipse class="cls-13" cx="228.45" cy="251.65" rx="2.47" ry="2.64" transform="matrix(0.08, -1, 1, 0.08, -40.09, 459.99)"/><ellipse class="cls-13" cx="229.13" cy="252.76" rx="2.47" ry="2.64" transform="matrix(0.08, -1, 1, 0.08, -40.56, 461.7)"/><ellipse class="cls-13" cx="223.93" cy="248.2" rx="2.47" ry="2.64" transform="translate(-40.82 452.3) rotate(-85.57)"/><ellipse class="cls-13" cx="228.03" cy="245.11" rx="2.47" ry="2.64" transform="translate(-33.95 453.54) rotate(-85.57)"/><ellipse class="cls-13" cx="227.2" cy="248.58" rx="2.47" ry="2.64" transform="translate(-38.17 455.92) rotate(-85.57)"/><ellipse class="cls-13" cx="230.69" cy="252.44" rx="2.47" ry="2.64" transform="translate(-38.81 462.95) rotate(-85.57)"/><ellipse class="cls-13" cx="232.61" cy="251.45" rx="1.74" ry="1.86" transform="translate(-36.05 463.95) rotate(-85.57)"/><ellipse class="cls-13" cx="227.27" cy="242.78" rx="2.47" ry="2.64" transform="translate(-32.33 450.63) rotate(-85.57)"/><ellipse class="cls-13" cx="252.55" cy="229.95" rx="2.64" ry="2.47" transform="translate(-87.53 261.63) rotate(-47.64)"/><ellipse class="cls-13" cx="242.6" cy="232.09" rx="1.91" ry="1.68" transform="translate(-34.35 42.3) rotate(-9.31)"/></g><path class="cls-5" d="M68.73,374.83c92.43,5.34,184.81,9.92,277.39,5.74q39-1.77,77.91-5.23c6.36-.56,6.42-10.57,0-10-92.09,8.15-184.27,8.26-276.56,3.79-26.26-1.27-52.5-2.79-78.74-4.3-6.43-.37-6.41,9.63,0,10Z"/><rect class="cls-14" x="251.07" y="293.04" width="7.22" height="208" transform="translate(269.34 -74.43) rotate(34.46)"/><ellipse class="cls-12" cx="308.5" cy="323.33" rx="8" ry="5.5"/><rect class="cls-4" x="221.47" y="300.37" width="83.65" height="19.06" transform="translate(138.95 -77.27) rotate(22.55)"/><ellipse class="cls-14" cx="176.12" cy="501.91" rx="40.69" ry="14.51" transform="translate(-314.83 297.23) rotate(-48.03)"/><g class="cls-15"><path class="cls-16" d="M452.84,532.33c-3.85-7.69-7.87-15.61-14-20.87s-15.06-7.2-21.37-2.19-8.76,15.61-15.92,18.57c-7.68,3.17-15.25-4.34-21.28-10.74s-15.17-12.45-21.71-6.76c-2.94,2.56-4.44,7-7.48,9.33-6.84,5.32-15.44-2.45-21-9.53s-14.52-14.53-21.07-8.73c5.82,2.33,5.77,13,1.22,17.83S299,524.68,292.86,525L258.27,527c-8.29.46-16.76.9-24.72-1.84-5.6-1.93-10.73-5.36-15.79-8.76l-34.37-23.08c4.86,6.09,3.45,16.72-1.79,22.36s-13.1,6.84-20.07,5.15-13.28-5.88-19.46-10c4.39,1.6,4.21,10,.29,12.81s-9.2,1-12.77-2.35-6-8.09-9-12.13-7.15-7.59-11.75-7.36c-7.52.39-12.13,10.31-19.32,13-6.26,2.3-12.82-1.35-19.08-3.66a48.06,48.06,0,0,0-30.48-1c-3.69,1.11-7.44,2.79-10,6.13s-3.39,8.73-1.07,12.27q33.43,5.89,67,10.28a1562.34,1562.34,0,0,0,234.35,12.65q60.6-1.26,121-7.06c3.2-.31,6.82-.89,8.69-3.94s-.52-8.74-3.48-7.3"/></g><g class="cls-8"><path class="cls-17" d="M66.94,652.25l7.91-11.87c1.53-2.3,3.32-4.78,6-5.39,5.42-1.23,9,5.49,14,8,7.44,3.7,15.71-2.79,21.48-8.78s14-12.51,21.46-8.88c10.85,5.25,7.72,26.46,19.62,28.37,8.66,1.4,15.1-10.27,23.85-9.49,5.35.47,9.39,5.57,14.73,6.2,9.14,1.08,14.52-10.66,23.29-13.47,11.91-3.82,25,10.07,36.26,4.67,4-1.93,6.58-5.87,9.57-9.18,8.69-9.6,24-14.09,35.06-7.3,4.8,3,8.3,7.63,12.84,11s11.16,5.17,15.68,1.8c1.95-1.46,3.19-3.65,5-5.33,6.47-6.14,17.1-3.38,25,.78s16.35,9.56,25,7.48c6.77-1.63,11.58-7.39,16.83-11.95s12.86-8.22,19-4.87c2.5,1.38,4.31,3.74,6.63,5.39,6.29,4.47,15,3,22.26.54s14.85-5.78,22.44-4.39,14.23,10.3,10.09,16.81c-2.12,3.34-6.18,4.8-10,6A395.33,395.33,0,0,1,356.2,666.17c-10.28.07-20.61-.26-30.79,1.2-14.4,2.06-28.28,7.67-42.82,8-12.58.27-24.89-3.46-37.42-4.51-13.28-1.12-26.64.76-40,.44-15.9-.39-31.63-3.92-47.54-4.07C131.9,667,106,675.6,80.72,670.5c-3.38-.69-6.84-1.68-9.42-4s-4-6.18-2.56-9.3"/></g><g class="cls-18"><path class="cls-19" d="M77.2,595.3c7.07-14.91,21.76-24.23,36.14-22.91A12.7,12.7,0,0,0,110,584.06c.92,4.22,4.11,7.61,7.75,8.24,7.77,1.35,13.81-8.58,21.58-10,10.08-1.82,18.44,11,28.64,11,7,0,12.78-5.93,19-9.74,7.6-4.67,16.24-6.25,24.71-7.77,3.77-.67,7.74-1.33,11.32.25,4,1.76,6.8,6,9.92,9.46s7.43,6.45,11.49,4.88c1.65-.63,3.44-2,4.95-1a3.67,3.67,0,0,1,1.28,1.9c1.12,3.26-.22,7.14-2.45,9.48s-5.16,3.47-8,4.43c-48.88,16.43-101.17,3.21-151.74,9-3.79.43-8.29.65-10.66-2.89-2.62-3.92-.83-9.63,1-14.12"/></g><g class="cls-8"><path class="cls-20" d="M337.56,572.59c6.3-11.87,17.62-20.76,30.37-25s26.79-4,39.71-.3c-5.11-.36-10.59,2-13,6.47s-.8,11,3.89,13.11c3.36,1.48,7.22.54,10.89.48A22.19,22.19,0,0,1,423.33,572a5.1,5.1,0,0,1,2.17,3,4.68,4.68,0,0,1-1,3.21c-4.51,6.82-14,7.6-22.23,7.59q-33.39,0-66.74-2l.91-8.1"/></g></g></svg>
