<svg xmlns="http://www.w3.org/2000/svg" xmlns:xlink="http://www.w3.org/1999/xlink" viewBox="0 0 500 700"><defs><style>.cls-1,.cls-10,.cls-11,.cls-14,.cls-19,.cls-2,.cls-20,.cls-25,.cls-3,.cls-4,.cls-5,.cls-6,.cls-7,.cls-8,.cls-9{fill:none;}.cls-10,.cls-11,.cls-2,.cls-3,.cls-4,.cls-5,.cls-6,.cls-7,.cls-8,.cls-9{stroke:#1d1d1b;stroke-linecap:round;stroke-dasharray:0 6.5;}.cls-2{stroke-width:5px;}.cls-3{stroke-width:4.69px;}.cls-4{stroke-width:4.39px;}.cls-5{stroke-width:4.08px;}.cls-6{stroke-width:3.78px;}.cls-7{stroke-width:3.47px;}.cls-8{stroke-width:3.17px;}.cls-9{stroke-width:2.86px;}.cls-10{stroke-width:2.56px;}.cls-11{stroke-width:2.25px;}.cls-12{fill:#72a9b7;}.cls-13,.cls-23{fill:#f6f6f6;}.cls-13,.cls-14{stroke:#5f7c3e;stroke-width:6px;}.cls-13,.cls-14,.cls-19,.cls-20,.cls-25{stroke-miterlimit:10;}.cls-15{fill:#322e65;}.cls-16{fill:#89cde5;}.cls-17{fill:#e5d438;}.cls-18{fill:#5f7c3e;}.cls-19{stroke:#e5d438;stroke-width:16px;}.cls-20{stroke:#312783;stroke-width:11px;}.cls-21{fill:#cec4e2;}.cls-22{fill:#f3912e;}.cls-24{fill:url(#Undulating_Coarse_Dots);}.cls-25{stroke:#f3912e;}</style><pattern id="Undulating_Coarse_Dots" data-name="Undulating Coarse Dots" width="83" height="65" patternUnits="userSpaceOnUse" viewBox="0 0 83 65"><rect class="cls-1" width="83" height="65"/><line class="cls-2" x1="83" y1="65" x2="83" y2="130.5"/><line class="cls-2" y1="65" y2="130.5"/><line class="cls-3" x1="4.61" y1="61.75" x2="4.61" y2="130.5"/><line class="cls-4" x1="9.22" y1="65" x2="9.22" y2="130.5"/><line class="cls-5" x1="13.83" y1="61.75" x2="13.83" y2="130.5"/><line class="cls-6" x1="18.44" y1="65" x2="18.44" y2="130.5"/><line class="cls-7" x1="23.06" y1="61.75" x2="23.06" y2="130.5"/><line class="cls-8" x1="27.67" y1="65" x2="27.67" y2="130.5"/><line class="cls-9" x1="32.28" y1="61.75" x2="32.28" y2="130.5"/><line class="cls-10" x1="36.89" y1="65" x2="36.89" y2="130.5"/><line class="cls-11" x1="41.5" y1="61.75" x2="41.5" y2="130.5"/><line class="cls-2" x1="83" y1="65" x2="83" y2="130.5"/><line class="cls-3" x1="78.39" y1="61.75" x2="78.39" y2="130.5"/><line class="cls-4" x1="73.78" y1="65" x2="73.78" y2="130.5"/><line class="cls-5" x1="69.17" y1="61.75" x2="69.17" y2="130.5"/><line class="cls-6" x1="64.56" y1="65" x2="64.56" y2="130.5"/><line class="cls-7" x1="59.94" y1="61.75" x2="59.94" y2="130.5"/><line class="cls-8" x1="55.33" y1="65" x2="55.33" y2="130.5"/><line class="cls-9" x1="50.72" y1="61.75" x2="50.72" y2="130.5"/><line class="cls-10" x1="46.11" y1="65" x2="46.11" y2="130.5"/><line class="cls-2" y1="65" y2="130.5"/><line class="cls-2" x1="83" x2="83" y2="65.5"/><line class="cls-2" y2="65.5"/><line class="cls-3" x1="4.61" y1="-3.25" x2="4.61" y2="65.5"/><line class="cls-4" x1="9.22" x2="9.22" y2="65.5"/><line class="cls-5" x1="13.83" y1="-3.25" x2="13.83" y2="65.5"/><line class="cls-6" x1="18.44" x2="18.44" y2="65.5"/><line class="cls-7" x1="23.06" y1="-3.25" x2="23.06" y2="65.5"/><line class="cls-8" x1="27.67" x2="27.67" y2="65.5"/><line class="cls-9" x1="32.28" y1="-3.25" x2="32.28" y2="65.5"/><line class="cls-10" x1="36.89" x2="36.89" y2="65.5"/><line class="cls-11" x1="41.5" y1="-3.25" x2="41.5" y2="65.5"/><line class="cls-2" x1="83" x2="83" y2="65.5"/><line class="cls-3" x1="78.39" y1="-3.25" x2="78.39" y2="65.5"/><line class="cls-4" x1="73.78" x2="73.78" y2="65.5"/><line class="cls-5" x1="69.17" y1="-3.25" x2="69.17" y2="65.5"/><line class="cls-6" x1="64.56" x2="64.56" y2="65.5"/><line class="cls-7" x1="59.94" y1="-3.25" x2="59.94" y2="65.5"/><line class="cls-8" x1="55.33" x2="55.33" y2="65.5"/><line class="cls-9" x1="50.72" y1="-3.25" x2="50.72" y2="65.5"/><line class="cls-10" x1="46.11" x2="46.11" y2="65.5"/><line class="cls-2" y2="65.5"/><line class="cls-2" x1="83" y1="-65" x2="83" y2="0.5"/><line class="cls-2" y1="-65" y2="0.5"/><line class="cls-3" x1="4.61" y1="-68.25" x2="4.61" y2="0.5"/><line class="cls-4" x1="9.22" y1="-65" x2="9.22" y2="0.5"/><line class="cls-5" x1="13.83" y1="-68.25" x2="13.83" y2="0.5"/><line class="cls-6" x1="18.44" y1="-65" x2="18.44" y2="0.5"/><line class="cls-7" x1="23.06" y1="-68.25" x2="23.06" y2="0.5"/><line class="cls-8" x1="27.67" y1="-65" x2="27.67" y2="0.5"/><line class="cls-9" x1="32.28" y1="-68.25" x2="32.28" y2="0.5"/><line class="cls-10" x1="36.89" y1="-65" x2="36.89" y2="0.5"/><line class="cls-11" x1="41.5" y1="-68.25" x2="41.5" y2="0.5"/><line class="cls-2" x1="83" y1="-65" x2="83" y2="0.5"/><line class="cls-3" x1="78.39" y1="-68.25" x2="78.39" y2="0.5"/><line class="cls-4" x1="73.78" y1="-65" x2="73.78" y2="0.5"/><line class="cls-5" x1="69.17" y1="-68.25" x2="69.17" y2="0.5"/><line class="cls-6" x1="64.56" y1="-65" x2="64.56" y2="0.5"/><line class="cls-7" x1="59.94" y1="-68.25" x2="59.94" y2="0.5"/><line class="cls-8" x1="55.33" y1="-65" x2="55.33" y2="0.5"/><line class="cls-9" x1="50.72" y1="-68.25" x2="50.72" y2="0.5"/><line class="cls-10" x1="46.11" y1="-65" x2="46.11" y2="0.5"/><line class="cls-2" y1="-65" y2="0.5"/></pattern></defs><title>hjemmeaften</title><g id="hjemmeaften"><rect class="cls-12" width="500" height="332.08"/><g id="vindu"><polygon class="cls-13" points="148.01 202.8 52.97 202.8 52.97 52 100.49 52 148.01 52 148.01 202.8"/><line class="cls-14" x1="52.97" y1="109.88" x2="145.94" y2="109.88"/><line class="cls-14" x1="100.63" y1="55.24" x2="102.37" y2="202.8"/></g><ellipse class="cls-15" cx="328.48" cy="369.95" rx="7.62" ry="18.02"/><rect class="cls-16" x="405.28" y="125.16" width="21.26" height="81.52" rx="10.63" ry="10.63" transform="translate(859.06 101.66) rotate(150)"/><rect class="cls-16" x="270.89" y="176.21" width="21.26" height="81.52" rx="10.63" ry="10.63" transform="translate(-47.46 82.42) rotate(-15.38)"/><rect class="cls-16" x="272.93" y="125.62" width="21.26" height="81.52" rx="10.63" ry="10.63" transform="translate(76.08 -88.65) rotate(20.47)"/><ellipse class="cls-15" cx="366.26" cy="369.95" rx="7.62" ry="18.02"/><rect class="cls-16" x="399.04" y="176.21" width="21.26" height="81.52" rx="10.63" ry="10.63" transform="matrix(0.8, 0.6, -0.6, 0.8, 211.01, -201.88)"/><path class="cls-16" d="M377.86,239.09q-31.85-1.17-63.72.73c-5.22.31-10.48-4.81-11.69-11.48q-8.26-47.65-16.52-95.31c-1.21-6.66,4.32-12.47,12.29-12.76q47.75-1.76,95.56,1.1c8,.47,13.5,6.31,12.29,12.84q-8.25,46.71-16.52,93.42C388.35,234.16,383.08,239.28,377.86,239.09Z"/><rect class="cls-17" x="330.26" y="118.99" width="36" height="122"/><path class="cls-18" d="M350,125c-.32-1,.46-2.06,1.2-2.85a13.47,13.47,0,0,1,3.3-2.77,5.3,5.3,0,0,1,4.18-.49,7.29,7.29,0,0,1,2.72,2.06c.92,1,1.84,2.21,1.64,3.55-.25,1.72-2.16,2.61-3.83,3.1a10.91,10.91,0,0,1-6.13.42c-4-1.21-5.89-6.07-9.8-7.5a6.48,6.48,0,0,0-8.14,8.71,3.7,3.7,0,0,0,1.1,1.49c1.57,1.18,3.81.26,5.49-.77a55.28,55.28,0,0,0,5.41-3.8"/><rect class="cls-18" x="347.19" y="123.3" width="3.01" height="3.01" rx="1.5" ry="1.5"/><path class="cls-18" d="M348.76,124.76a102,102,0,0,0,1.37,79.5c.66,1.48,1.92,3.21,3.47,2.74,1.07-.32,1.55-1.54,1.87-2.61,3-10,5.35-20.28,5.72-30.72a84.78,84.78,0,0,0-12.37-47.09"/><rect class="cls-18" x="354.73" y="337.6" width="23.05" height="23.05" transform="translate(732.52 698.25) rotate(180)"/><rect class="cls-18" x="316.96" y="339.78" width="23.05" height="23.05"/><g id="bord"><line class="cls-19" x1="138.36" y1="329.98" x2="140.94" y2="490"/><line class="cls-19" x1="174.49" y1="232" x2="177.07" y2="392.02"/><line class="cls-19" x1="408.38" y1="245.59" x2="410.96" y2="405.61"/><line class="cls-19" x1="444.77" y1="316.63" x2="447.35" y2="476.65"/><path class="cls-17" d="M465.57,332.23,115.35,351.32l48.31-143.1,253.61,13.83Z"/></g><g id="stol"><line class="cls-20" x1="90.03" y1="582.84" x2="90.03" y2="482.52"/><rect class="cls-15" x="67.68" y="347.37" width="44.7" height="128"/><path class="cls-15" d="M189.15,510.09c-40.44-10.88-80.71-13.07-118.53-7.15q4.89-29.49,9.86-57.72c38.26-.25,77.38,7.56,115.17,23.56Q192.74,488.88,189.15,510.09Z"/><line class="cls-20" x1="173.11" y1="596.12" x2="173.11" y2="495.79"/></g><ellipse class="cls-21" cx="33.46" cy="395.86" rx="13.08" ry="6.64"/><polygon class="cls-21" points="38.93 400.97 85.77 422.27 90.81 408.65 41.52 393.99 38.93 400.97"/><polygon class="cls-21" points="185.5 427.94 167.49 380.92 155.46 385.38 176.86 432.23 185.5 427.94"/><polygon class="cls-22" points="247.63 457.16 247.88 439.09 164.31 426.06 163.79 463.65 247.63 457.16"/><circle class="cls-22" cx="250.29" cy="447.85" r="9.08"/><polygon class="cls-22" points="201.01 555.9 209.47 557.01 204.12 492.98 187.84 494.78 201.01 555.9"/><polygon class="cls-22" points="257.01 504.45 265.51 505.19 257.33 441.45 241.15 443.97 257.01 504.45"/><polygon class="cls-22" points="196.75 495.5 202.15 487.87 149.58 439.3 129.9 464.43 196.75 495.5"/><ellipse class="cls-22" cx="145.55" cy="443.49" rx="28.33" ry="18.52" transform="translate(-258.28 209.42) rotate(-41.73)"/><ellipse class="cls-22" cx="132.17" cy="450.11" rx="15.83" ry="14.67"/><circle class="cls-22" cx="195.72" cy="491.16" r="8.34"/><path class="cls-23" d="M211.15,559.6l-.34-4.2-9.32.77c-3.05,2.09-2.08,16.42,1.22,14.74,3.86-2,24.7-.76,32.66-2.71Z"/><path class="cls-24" d="M211.15,559.6l-.34-4.2-9.32.77c-3.05,2.09-2.08,16.42,1.22,14.74,3.86-2,24.7-.76,32.66-2.71Z"/><path class="cls-23" d="M266.44,505l-.44-4.19-9.3,1c-3,2.16-1.7,16.46,1.56,14.71,3.82-2.06,24.67-1.33,32.59-3.45Z"/><path class="cls-24" d="M266.44,505l-.44-4.19-9.3,1c-3,2.16-1.7,16.46,1.56,14.71,3.82-2.06,24.67-1.33,32.59-3.45Z"/><rect class="cls-21" x="97.21" y="336.36" width="11.03" height="20.45" rx="5" ry="5" transform="translate(205.45 693.16) rotate(180)"/><path class="cls-21" d="M85.08,317.35c0,16.7,7.9,25.4,17.64,25.4s17.64-8.7,17.64-25.4-8.63-21.49-18.37-21.49S85.08,300.65,85.08,317.35Z"/><polygon class="cls-12" points="166.29 380.45 136.49 338.28 125.58 352.45 159.89 390.61 166.29 380.45"/><polygon class="cls-12" points="87.29 422.72 103.85 366.67 85.3 362.83 77.78 420.75 87.29 422.72"/><ellipse class="cls-12" cx="89.42" cy="362.83" rx="5.24" ry="9.64"/><path class="cls-12" d="M125.71,457.73l43-13.59c4.44-1.4,6.73-6.78,5.09-11.95L147,396.62,142,350c-1.64-5.17-6.35-10.22-6.35-10.22L92.7,353.36c-4.43,1.4-6.72,6.78-5.09,11.95l24.7,42.28,2.36,43.29C116.31,456.05,121.28,459.13,125.71,457.73Z"/><path class="cls-21" d="M326.55,91.91c0,19,9.72,29,21.71,29S370,110.94,370,91.91s-10.62-24.5-22.6-24.5S326.55,72.87,326.55,91.91Z"/><g id="hår"><ellipse class="cls-25" cx="356.11" cy="116.8" rx="2.47" ry="2.64" transform="translate(222.92 467.11) rotate(-87.34)"/><ellipse class="cls-25" cx="358.9" cy="116.49" rx="2.47" ry="2.64" transform="translate(225.9 469.6) rotate(-87.34)"/><ellipse class="cls-25" cx="362.4" cy="107.89" rx="2.47" ry="2.64" transform="translate(237.83 464.9) rotate(-87.34)"/><ellipse class="cls-25" cx="336.16" cy="108.34" rx="2.47" ry="2.64" transform="matrix(0.05, -1, 1, 0.05, 212.35, 439.12)"/><ellipse class="cls-25" cx="338.12" cy="111.92" rx="2.47" ry="2.64" transform="translate(210.64 444.5) rotate(-87.34)"/><ellipse class="cls-25" cx="338.84" cy="108.43" rx="2.47" ry="2.64" transform="translate(214.81 441.88) rotate(-87.34)"/><ellipse class="cls-25" cx="335.06" cy="114.77" rx="2.47" ry="2.64" transform="translate(204.87 444.15) rotate(-87.34)"/><ellipse class="cls-25" cx="334.65" cy="111.23" rx="2.47" ry="2.64" transform="translate(208.03 440.36) rotate(-87.34)"/><ellipse class="cls-25" cx="338.44" cy="108.61" rx="2.47" ry="2.64" transform="translate(214.26 441.65) rotate(-87.34)"/><ellipse class="cls-25" cx="336.64" cy="110.63" rx="2.47" ry="2.64" transform="translate(210.53 441.78) rotate(-87.34)"/><ellipse class="cls-25" cx="340.4" cy="119.17" rx="2.47" ry="2.64" transform="translate(205.58 453.68) rotate(-87.34)"/><ellipse class="cls-25" cx="335.92" cy="109.55" rx="2.47" ry="2.64" transform="translate(210.92 440.02) rotate(-87.34)"/><ellipse class="cls-25" cx="335.51" cy="106" rx="2.47" ry="2.64" transform="translate(214.08 436.24) rotate(-87.34)"/><ellipse class="cls-25" cx="341.27" cy="113.94" rx="2.47" ry="2.64" transform="translate(211.63 449.56) rotate(-87.34)"/><ellipse class="cls-25" cx="337.26" cy="117.15" rx="2.47" ry="2.64" transform="translate(204.6 448.62) rotate(-87.34)"/><ellipse class="cls-25" cx="337.98" cy="113.66" rx="2.47" ry="2.64" transform="translate(208.77 446.01) rotate(-87.34)"/><ellipse class="cls-25" cx="357.94" cy="111.12" rx="2.47" ry="2.64" transform="translate(230.34 463.53) rotate(-87.34)"/><ellipse class="cls-25" cx="363.22" cy="111.36" rx="2.47" ry="2.64" transform="translate(235.14 469.03) rotate(-87.34)"/><ellipse class="cls-25" cx="360.14" cy="113.43" rx="2.47" ry="2.64" transform="translate(230.14 467.93) rotate(-87.34)"/><ellipse class="cls-25" cx="363.1" cy="114.5" rx="2.47" ry="2.64" transform="translate(231.89 471.9) rotate(-87.34)"/><ellipse class="cls-25" cx="360.8" cy="117.33" rx="2.47" ry="2.64" transform="translate(226.87 472.3) rotate(-87.34)"/><ellipse class="cls-25" cx="355.68" cy="116.67" rx="2.47" ry="2.64" transform="translate(222.65 466.56) rotate(-87.34)"/><ellipse class="cls-25" cx="358.64" cy="117.73" rx="2.47" ry="2.64" transform="translate(224.4 470.53) rotate(-87.34)"/><ellipse class="cls-25" cx="356.34" cy="120.56" rx="2.47" ry="2.64" transform="translate(219.38 470.93) rotate(-87.34)"/><ellipse class="cls-25" cx="351.64" cy="120.03" rx="2.47" ry="2.64" transform="translate(215.44 465.74) rotate(-87.34)"/><ellipse class="cls-25" cx="354.44" cy="119.72" rx="2.47" ry="2.64" transform="translate(218.42 468.23) rotate(-87.34)"/><ellipse class="cls-25" cx="347.56" cy="120.31" rx="2.47" ry="2.64" transform="translate(211.27 461.92) rotate(-87.34)"/><ellipse class="cls-25" cx="346.42" cy="116.01" rx="2.47" ry="2.64" transform="translate(214.47 456.68) rotate(-87.34)"/><ellipse class="cls-25" cx="347.73" cy="118.35" rx="2.47" ry="2.64" transform="translate(213.38 460.22) rotate(-87.34)"/><ellipse class="cls-25" cx="357.58" cy="118.45" rx="2.47" ry="2.64" transform="translate(222.68 470.16) rotate(-87.34)"/><ellipse class="cls-25" cx="358.76" cy="114.6" rx="2.47" ry="2.64" transform="translate(227.66 467.66) rotate(-87.34)"/><ellipse class="cls-25" cx="340.26" cy="118.6" rx="2.47" ry="2.64" transform="matrix(0.05, -1, 1, 0.05, 206.02, 452.99)"/><ellipse class="cls-25" cx="350.12" cy="118.69" rx="2.47" ry="2.64" transform="translate(215.32 462.93) rotate(-87.34)"/><ellipse class="cls-25" cx="354.4" cy="120.37" rx="2.47" ry="2.64" transform="translate(217.72 468.81) rotate(-87.34)"/><ellipse class="cls-25" cx="363.77" cy="97.6" rx="2.47" ry="2.64" transform="translate(249.41 456.46) rotate(-87.34)"/><ellipse class="cls-25" cx="366.93" cy="97.45" rx="2.47" ry="2.64" transform="translate(252.57 459.47) rotate(-87.34)"/><ellipse class="cls-25" cx="366.43" cy="101.49" rx="2.47" ry="2.64" transform="translate(248.06 462.83) rotate(-87.34)"/><ellipse class="cls-25" cx="364.53" cy="104.56" rx="2.47" ry="2.64" transform="matrix(0.05, -1, 1, 0.05, 243.18, 463.85)"/><ellipse class="cls-25" cx="367.68" cy="104.41" rx="2.47" ry="2.64" transform="matrix(0.05, -1, 1, 0.05, 246.34, 466.86)"/><ellipse class="cls-25" cx="366.82" cy="107.88" rx="2.47" ry="2.64" transform="translate(242.05 469.3) rotate(-87.34)"/><ellipse class="cls-25" cx="362.31" cy="109.18" rx="2.47" ry="2.64" transform="translate(236.45 466.04) rotate(-87.34)"/><ellipse class="cls-25" cx="334.38" cy="109.91" rx="2.47" ry="2.64" transform="translate(209.08 438.83) rotate(-87.34)"/><ellipse class="cls-25" cx="331.27" cy="110.44" rx="2.47" ry="2.64" transform="translate(205.6 436.23) rotate(-87.34)"/><ellipse class="cls-25" cx="331.21" cy="106.37" rx="2.47" ry="2.64" transform="translate(209.6 432.29) rotate(-87.34)"/><ellipse class="cls-25" cx="332.68" cy="103.09" rx="2.47" ry="2.64" transform="translate(214.27 430.63) rotate(-87.34)"/><ellipse class="cls-25" cx="329.57" cy="103.62" rx="2.47" ry="2.64" transform="translate(210.78 428.03) rotate(-87.34)"/><ellipse class="cls-25" cx="329.95" cy="100.07" rx="2.47" ry="2.64" transform="translate(214.69 425.03) rotate(-87.34)"/><ellipse class="cls-25" cx="334.23" cy="98.24" rx="2.47" ry="2.64" transform="matrix(0.05, -1, 1, 0.05, 220.6, 427.56)"/><ellipse class="cls-25" cx="351.23" cy="118.39" rx="2.47" ry="2.64" transform="matrix(0.05, -1, 1, 0.05, 216.68, 463.75)"/><ellipse class="cls-25" cx="351.21" cy="121.35" rx="2.47" ry="2.64" transform="translate(213.72 466.56) rotate(-87.34)"/><ellipse class="cls-25" cx="346.93" cy="120.61" rx="2.47" ry="2.64" transform="translate(210.36 461.58) rotate(-87.34)"/><ellipse class="cls-25" cx="343.76" cy="118.63" rx="2.47" ry="2.64" transform="translate(209.32 456.52) rotate(-87.34)"/><ellipse class="cls-25" cx="343.75" cy="121.59" rx="2.47" ry="2.64" transform="translate(206.36 459.33) rotate(-87.34)"/><ellipse class="cls-25" cx="340.09" cy="120.55" rx="2.47" ry="2.64" transform="translate(203.91 454.69) rotate(-87.34)"/><ellipse class="cls-25" cx="338.95" cy="116.25" rx="2.47" ry="2.64" transform="translate(207.11 449.45) rotate(-87.34)"/></g><g id="hår-2" data-name="hår"><ellipse class="cls-25" cx="92.82" cy="299.58" rx="3.19" ry="3.15"/><ellipse class="cls-25" cx="89.45" cy="300.02" rx="3.19" ry="3.15"/><ellipse class="cls-25" cx="85.28" cy="311" rx="3.19" ry="3.15"/><ellipse class="cls-25" cx="116.94" cy="310.1" rx="3.19" ry="3.15"/><ellipse class="cls-25" cx="114.55" cy="305.56" rx="3.19" ry="3.15"/><ellipse class="cls-25" cx="113.7" cy="310.01" rx="3.19" ry="3.15"/><ellipse class="cls-25" cx="118.23" cy="301.9" rx="3.19" ry="3.15"/><ellipse class="cls-25" cx="118.74" cy="306.41" rx="3.19" ry="3.15"/><ellipse class="cls-25" cx="114.19" cy="309.79" rx="3.19" ry="3.15"/><ellipse class="cls-25" cx="116.34" cy="307.19" rx="3.19" ry="3.15"/><ellipse class="cls-25" cx="111.76" cy="296.37" rx="3.19" ry="3.15"/><ellipse class="cls-25" cx="117.22" cy="308.56" rx="3.19" ry="3.15"/><ellipse class="cls-25" cx="117.73" cy="313.07" rx="3.19" ry="3.15"/><ellipse class="cls-25" cx="110.74" cy="303.03" rx="3.19" ry="3.15"/><ellipse class="cls-25" cx="115.56" cy="298.89" rx="3.19" ry="3.15"/><ellipse class="cls-25" cx="114.71" cy="303.35" rx="3.19" ry="3.15"/><ellipse class="cls-25" cx="90.64" cy="306.83" rx="3.19" ry="3.15"/><ellipse class="cls-25" cx="84.26" cy="306.59" rx="3.19" ry="3.15"/><ellipse class="cls-25" cx="87.97" cy="303.92" rx="3.19" ry="3.15"/><ellipse class="cls-25" cx="84.4" cy="302.6" rx="3.19" ry="3.15"/><ellipse class="cls-25" cx="87.16" cy="298.97" rx="3.19" ry="3.15"/><ellipse class="cls-25" cx="93.33" cy="299.75" rx="3.19" ry="3.15"/><ellipse class="cls-25" cx="89.76" cy="298.43" rx="3.19" ry="3.15"/><ellipse class="cls-25" cx="92.52" cy="294.8" rx="3.19" ry="3.15"/><ellipse class="cls-25" cx="98.19" cy="295.41" rx="3.19" ry="3.15"/><ellipse class="cls-25" cx="94.81" cy="295.84" rx="3.19" ry="3.15"/><ellipse class="cls-25" cx="103.11" cy="295.01" rx="3.19" ry="3.15"/><ellipse class="cls-25" cx="104.52" cy="300.46" rx="3.19" ry="3.15"/><ellipse class="cls-25" cx="102.92" cy="297.5" rx="3.19" ry="3.15"/><ellipse class="cls-25" cx="91.03" cy="297.5" rx="3.19" ry="3.15"/><ellipse class="cls-25" cx="89.63" cy="302.42" rx="3.19" ry="3.15"/><ellipse class="cls-25" cx="111.93" cy="297.1" rx="3.19" ry="3.15"/><ellipse class="cls-25" cx="100.04" cy="297.1" rx="3.19" ry="3.15"/><ellipse class="cls-25" cx="94.86" cy="295.01" rx="3.19" ry="3.15"/><ellipse class="cls-25" cx="83.68" cy="324.11" rx="3.19" ry="3.15"/><ellipse class="cls-25" cx="79.87" cy="324.34" rx="3.19" ry="3.15"/><ellipse class="cls-25" cx="80.44" cy="319.19" rx="3.19" ry="3.15"/><ellipse class="cls-25" cx="82.73" cy="315.26" rx="3.19" ry="3.15"/><ellipse class="cls-25" cx="78.92" cy="315.49" rx="3.19" ry="3.15"/><ellipse class="cls-25" cx="79.95" cy="311.07" rx="3.19" ry="3.15"/><ellipse class="cls-25" cx="85.37" cy="309.35" rx="3.19" ry="3.15"/><ellipse class="cls-25" cx="119.08" cy="308.08" rx="3.19" ry="3.15"/><ellipse class="cls-25" cx="122.82" cy="307.37" rx="3.19" ry="3.15"/><ellipse class="cls-25" cx="122.92" cy="312.54" rx="3.19" ry="3.15"/><ellipse class="cls-25" cx="121.17" cy="316.73" rx="3.19" ry="3.15"/><ellipse class="cls-25" cx="124.92" cy="316.02" rx="3.19" ry="3.15"/><ellipse class="cls-25" cx="124.48" cy="320.54" rx="3.19" ry="3.15"/><ellipse class="cls-25" cx="119.32" cy="322.92" rx="3.19" ry="3.15"/><ellipse class="cls-25" cx="98.7" cy="297.5" rx="3.19" ry="3.15"/><ellipse class="cls-25" cx="98.7" cy="293.74" rx="3.19" ry="3.15"/><ellipse class="cls-25" cx="103.87" cy="294.61" rx="3.19" ry="3.15"/><ellipse class="cls-25" cx="107.71" cy="297.1" rx="3.19" ry="3.15"/><ellipse class="cls-25" cx="107.71" cy="293.33" rx="3.19" ry="3.15"/><ellipse class="cls-25" cx="112.12" cy="294.61" rx="3.19" ry="3.15"/><ellipse class="cls-25" cx="113.52" cy="300.06" rx="3.19" ry="3.15"/></g></g></svg>
