<svg xmlns="http://www.w3.org/2000/svg" viewBox="0 0 500 700"><defs><style>.cls-1{fill:#cec4e2;}.cls-2{fill:#f3912e;}.cls-3{fill:#e5d438;}.cls-4{fill:#89cde5;}.cls-5{fill:#fff;}.cls-6{fill:#322e65;}.cls-7{fill:#72a9b7;}.cls-8{fill:#5f7c3e;}.cls-9{fill:none;stroke:#1d1d1b;stroke-miterlimit:10;stroke-width:9px;}.cls-10{fill:#c6dc98;opacity:0.8;}.cls-11{fill:#b2b2b2;}.cls-12{fill:#14212f;}</style></defs><title>hytteliv</title><g id="hytteliv"><rect class="cls-1" y="1.45" width="500" height="286.69"/><circle class="cls-2" cx="331.7" cy="146.19" r="39.88"/><circle class="cls-3" cx="335.26" cy="145.19" r="30.23"/><polyline class="cls-4" points="0 188.52 175.88 109.88 198.58 139.63 220.58 132.15 500 235.45 501.63 311.46 0 324.05 0 188.52"/><polygon class="cls-5" points="145.94 121.3 175.88 161.16 177 141.51 198.58 155.71 209.58 143.66 220.58 152.05 232.03 136.38 220.58 132.15 198.58 139.63 175.88 109.88 145.94 121.3"/><polygon class="cls-6" points="145.94 308.61 267.67 94.14 501.63 311.46 145.94 308.61"/><polyline class="cls-5" points="247 130 267.67 94.14 299.43 123.64 308 154.08 286 136.38 277.5 168.33 268 139.63 250.82 172.97 237.56 147.19 247 130"/><polygon class="cls-7" points="21.07 201.35 83.83 21.35 225.24 307.35 -4.93 307.35 21.07 201.35"/><polyline class="cls-5" points="54.17 106.42 83.83 21.35 125.89 106.42 90.03 86.49 107 127.65 76 98.81 54.17 146.19 54.17 106.42"/><rect class="cls-8" y="304.13" width="500" height="395.87"/><line class="cls-9" x1="397.46" y1="330" x2="397.46" y2="438"/><g id="tre"><ellipse class="cls-10" cx="362.69" cy="336.81" rx="18" ry="32.98"/><ellipse class="cls-10" cx="392.18" cy="321.84" rx="18" ry="32.98"/><ellipse class="cls-10" cx="372.86" cy="303.17" rx="19.32" ry="24.67"/><ellipse class="cls-10" cx="410.18" cy="351.13" rx="19.32" ry="24.67"/><ellipse class="cls-10" cx="410.18" cy="376.84" rx="19.32" ry="24.67"/><ellipse class="cls-10" cx="436.1" cy="338.84" rx="19.32" ry="24.67"/><ellipse class="cls-10" cx="398.69" cy="290.8" rx="19.32" ry="24.67"/><ellipse class="cls-10" cx="416.78" cy="307.41" rx="19.32" ry="24.67"/><ellipse class="cls-10" cx="380.69" cy="358.68" rx="18" ry="32.98"/></g><path class="cls-11" d="M312,716c-6,1-11,5-17,5,5-68-10-136-48-196-1-2-1-3-2-5-23-31-40-61-53-96-15-45-23-91-19-138,6-1,11-4,17-5-6,70,13,141,50,201,50,66,78,151,72,234Z"/><rect class="cls-12" x="107" y="297.7" width="140" height="93.77"/><path class="cls-11" d="M265.86,312.83q-90-1.47-180,2.73l46.65-52.7q43.32-.71,86.64,1.32Q242.54,288.5,265.86,312.83Z"/><rect class="cls-5" x="125.89" y="325.11" width="22" height="22"/><rect class="cls-5" x="198.58" y="325.11" width="22" height="22"/></g></svg>
