<svg xmlns="http://www.w3.org/2000/svg" viewBox="0 0 152 185"><defs><style>.cls-1{fill:#1d1d1b;}.cls-2{fill:#f9d0da;}.cls-3{fill:#706f6f;}</style></defs><title>light pink logo</title><g id="Layer_2" data-name="Layer 2"><g id="SH_gr책bl책" data-name="SH gr책bl책"><path class="cls-1" d="M139,179.11v-28H87.35v28H79.22V101.74h8.13v42.08H139V52.74H147V179.11Z"/><path class="cls-2" d="M71.1,5.89A66.11,66.11,0,1,1,5,72,66.11,66.11,0,0,1,71.1,5.89"/><path class="cls-3" d="M68.36,167.43a42.87,42.87,0,0,0,14.72-.7,42.42,42.42,0,0,0,12.5-4.83q10.89-6.56,13.5-14.55t-2.69-16.81a21.26,21.26,0,0,0-6.31-6.91,24.59,24.59,0,0,0-8.84-3.46Q86,119.1,70.51,118.91q-14-.1-20.65-1.64a31.44,31.44,0,0,1-11.33-4.89A31.13,31.13,0,0,1,30.19,103Q23.07,91.12,27,78.45T44.16,57.88a55.28,55.28,0,0,1,20.3-7.7l6,9.94a43.06,43.06,0,0,0-22.33,6.52q-9.15,5.51-12,13.79t2,16.31a23.26,23.26,0,0,0,6.69,7.49,23.6,23.6,0,0,0,9.48,3.41q5.78.94,18.89.83,17.9,0,26.89,3.55a29,29,0,0,1,14.33,12.45q7.66,12.75,3.78,25t-18.08,20.81a58.13,58.13,0,0,1-13.21,5.54q-7.92,2.37-12.23,2.08Z"/></g></g></svg>