<svg xmlns="http://www.w3.org/2000/svg" viewBox="0 0 500 700"><defs><style>.cls-1{fill:#cec4e2;}.cls-2{fill:#f3912e;}.cls-3{fill:#72a9b7;}.cls-4{fill:#89cde5;}.cls-5{fill:#dadada;}.cls-6{fill:#b2b2b2;}.cls-7{fill:#14212f;stroke:#1d1d1b;}.cls-21,.cls-22,.cls-7{stroke-miterlimit:10;}.cls-8{fill:#a3ba68;}.cls-9{fill:#e0e9b4;}.cls-10{fill:#c6dc98;}.cls-11{fill:#e5d438;}.cls-12{fill:#c1b032;}.cls-13{fill:#edd944;}.cls-14{fill:#d6bf3a;}.cls-15{fill:#f6f6f6;}.cls-16{fill:#ef8e92;}.cls-17{fill:#ee7374;}.cls-18{fill:#322e65;}.cls-19{fill:#8ec157;}.cls-20{fill:#5f7c3e;}.cls-21,.cls-22{fill:none;stroke:#8ec157;stroke-linecap:round;}.cls-21{stroke-width:7px;}.cls-22{stroke-width:5px;}</style></defs><title>måltid</title><g id="middag"><g id="bg"><rect class="cls-1" y="1.45" width="500" height="700"/></g><rect id="underlag" class="cls-2" x="73.62" y="166.78" width="361.2" height="361.2" rx="12" ry="12"/><g id="serviett"><path class="cls-3" d="M485.74,561.89a12,12,0,0,1-12,12H345a12,12,0,0,1-12-12V384.27a12,12,0,0,1,12-12"/><path class="cls-4" d="M473,561.89a12,12,0,0,1-12,12H332.28a12,12,0,0,1-12-12V384.27a12,12,0,0,1,12-12"/></g><g id="askjett"><circle class="cls-5" cx="255" cy="346" r="169.35"/><circle class="cls-6" cx="254.98" cy="347" r="153.9"/></g><g id="kniv"><path class="cls-3" d="M462.87,328.9l-.14-13.08c-.05-5.31-.66-11.69-4.79-14-2.41-1.37-5.37-.87-7.79-2.2-3.15-1.71-4.57-6.07-4.65-10.07-.26-13.34,10.38-23.37,14.29-35.92,2-6.4,2.18-13.32,3.34-20s3.62-13.55,8.65-17.09c5.5,7.57,5.16,18.51,4.54,28.36q-2.08,33-4.18,66c-.45,7.14-1.42,15.33-6.65,19.2"/><path class="cls-7" d="M467.91,323.52c12.74,8.4,12.15,141.75,8.89,152.16-1.42,4.57-8.22,17.9-15.17,14.43C440.12,479.37,454.29,314.53,467.91,323.52Z"/><path class="cls-4" d="M467.08,351.14a680.38,680.38,0,0,1,2.23,112.93c-.05.8,1.2.8,1.25,0a680.38,680.38,0,0,0-2.23-112.93c-.09-.79-1.34-.8-1.25,0Z"/><path class="cls-4" d="M459.47,351.16a855.34,855.34,0,0,1-2.16,112.06c-.07.8,1.18.79,1.25,0a855.34,855.34,0,0,0,2.16-112.06c0-.8-1.29-.81-1.25,0Z"/></g><g id="gaffel"><path class="cls-7" d="M34.37,320.19c-15.9,8-15.16,134.74-11.1,144.64,1.78,4.34,10.26,17,18.93,13.71C69,468.34,51.36,311.65,34.37,320.19Z"/><path class="cls-3" d="M32.06,321.35l-1.34-21.16c-.23-3.6-.48-7.29-1.93-10.6-2.78-6.33-9.36-10-13.54-15.55-7-9.18-6.38-22.13-2.95-33.14a8.67,8.67,0,0,1,2.28-4.18c1.23-1,3.31-1.25,4.35,0a4.66,4.66,0,0,1,.74,3.09l.12,22.93c0,3.21,1.23,7.58,4.42,7.24A45.76,45.76,0,0,1,32,243.42c5.45,9.05,1.12,21.39,5.86,30.83,2-1.42,2.53-4.08,2.94-6.48q1.14-6.82,2.27-13.65c.83-5,2.22-10.69,6.8-12.77a2.88,2.88,0,0,1,2.25-.23c1.37.55,1.48,2.42,1.36,3.89l-1.33,16.92c-.38,4.91-.82,10-3.32,14.24-1.7,2.89-4.26,5.18-6.27,7.87-7.56,10-6.68,23.87-5.46,36.38"/><path class="cls-4" d="M32.15,344.71q.32,54.85-3.31,109.63c-.06.8,1.19.8,1.25,0q3.61-54.75,3.31-109.63a.63.63,0,0,0-1.25,0Z"/><path class="cls-4" d="M41.86,343.94c-1.16,37.37-3.55,74.74,1.43,112,.11.79,1.36.8,1.25,0-5-37.21-2.59-74.58-1.43-111.95,0-.81-1.22-.81-1.25,0Z"/></g><g id="salat"><path class="cls-8" d="M251.4,375.62c-7.41-12.47-29.59-48.09-50.56-79.26-23.92-35.57,14-81.06,47.48-76.33s69.47,27.47,63.94,66.52c-2.1,14.82-26.12,55.42-34.41,65.84C264.31,369.41,260.71,391.31,251.4,375.62Z"/><path class="cls-9" d="M258.46,378.51c-26.64-75.61-33.66-141.92-15.7-148.25"/><path class="cls-10" d="M257.15,381.07c-1.54-15-6.78-57.88-12.62-95.72-6.68-43.18,40.35-85.92,65.76-74.66s46.46,42.64,28,84.24c-7,15.8-41,55.74-51.43,65.6C269.84,376.64,259.09,399.89,257.15,381.07Z"/><path class="cls-9" d="M304.16,219.69c0,80.17-15.41,145-34.46,145"/></g><g id="fritter"><path class="cls-11" d="M197.28,242.32c-2.43,12.29-6.68,24.62-4.94,37,1.16,8.33,5,16,8.7,23.56,2.91,5.84,6,11.95,11.46,15.6,4.33,2.9,9.66,3.9,14.86,4.26a4.06,4.06,0,0,0,2-.21,3.57,3.57,0,0,0,1.39-1.31c3.73-5.31,2.72-12.68.13-18.63s-6.58-11.29-8.68-17.44c-4.09-12-.46-25.2-1.85-37.8-.83-7.5-4.42-15.74-11.66-17.86a4.06,4.06,0,0,0-3,0,4.91,4.91,0,0,0-1.5,1.51l-7.79,10.65"/><path class="cls-12" d="M168.51,256.17c-2.44,12.28-6.68,24.62-4.95,37,1.17,8.33,5,16,8.71,23.56,2.91,5.85,6,12,11.46,15.6,4.32,2.91,9.65,3.91,14.85,4.27a4.21,4.21,0,0,0,2-.21A3.68,3.68,0,0,0,202,335.1c3.74-5.32,2.73-12.68.13-18.64s-6.58-11.28-8.67-17.43c-4.09-12-.46-25.2-1.85-37.8-.83-7.5-4.42-15.74-11.67-17.87a4,4,0,0,0-3,0,4.67,4.67,0,0,0-1.49,1.51l-7.79,10.65"/><path class="cls-13" d="M197.83,283.74c-2.68,9.8-7.36,19.64-5.45,29.53,1.28,6.65,5.47,12.79,9.6,18.8,3.2,4.66,6.66,9.54,12.63,12.44,4.77,2.32,10.65,3.12,16.38,3.41a6.37,6.37,0,0,0,2.23-.17,3.75,3.75,0,0,0,1.53-1c4.12-4.25,3-10.12.14-14.87s-7.25-9-9.56-13.91c-4.51-9.57-.51-20.1-2-30.16-.91-6-4.88-12.55-12.86-14.25a6,6,0,0,0-3.32,0,4.82,4.82,0,0,0-1.65,1.2l-8.59,8.5"/><path class="cls-11" d="M151.47,264.23c-2.44,12.28-6.68,24.62-4.94,37,1.16,8.32,5,16,8.7,23.55,2.91,5.85,6,12,11.46,15.6,4.32,2.91,9.65,3.91,14.85,4.27a4.2,4.2,0,0,0,2-.21,3.71,3.71,0,0,0,1.39-1.31c3.73-5.32,2.72-12.68.12-18.64s-6.57-11.28-8.67-17.43c-4.09-12-.46-25.2-1.85-37.8-.83-7.5-4.42-15.74-11.66-17.86a4.06,4.06,0,0,0-3,0,4.81,4.81,0,0,0-1.5,1.51l-7.79,10.65"/><path class="cls-14" d="M162.36,279.85c-9.44,8.23-20.34,15.4-26.55,26.28-4.17,7.31-5.87,15.72-7.51,24-1.27,6.4-2.53,13.15-.47,19.35,1.65,4.94,5.26,9,9.15,12.45a4.21,4.21,0,0,0,1.73,1.08,3.74,3.74,0,0,0,1.9-.19c6.21-1.93,9.91-8.37,11.5-14.67s1.69-12.95,3.79-19.1c4.1-12,15-20.23,21.64-31,3.93-6.44,6.12-15.16,1.69-21.27a4.07,4.07,0,0,0-2.41-1.8,4.8,4.8,0,0,0-2.11.28L162,278.84"/></g><g id="speilegg"><path class="cls-15" d="M314.06,396.31c0-32-24.12-57.9-53.88-57.9a50.83,50.83,0,0,0-27.83,8.31,61.7,61.7,0,0,0-19.4-3.1c-.45,0-.89,0-1.34,0a62.25,62.25,0,0,0-11.85-1.14c-.54,0-1.07,0-1.6,0a44.35,44.35,0,0,0-21-5.19c-22.73,0-41.14,16.62-41.14,37.11a34.63,34.63,0,0,0,8,22c1.33,15.55,10.57,29.12,24.15,37.46a47,47,0,0,0,24.7,17.88c10,13.74,27.24,22.84,46.9,22.84,23.45,0,43.52-12.95,51.82-31.3C305.2,432.83,314.06,415.69,314.06,396.31Z"/><path class="cls-2" d="M255,404.32c-3.71,23.64-17,43.35-30,38.73-13-5.51-26.25-23.23-30-35.37s9.46-32.73,30-40.17C245.56,360.91,258.77,380.69,255,404.32Z"/></g><g id="bacon"><path class="cls-16" d="M309,458c1,5-2,10-1,15h2c2-2,5-2,6-5-1,3,1,5,2,8,1-1,3-2,4-3,5-14,12-26,23-36,1-2,2-5,3-7,1-15,6-29,13-42,5-9,6-18,8-28,0-1,2-2,2-3,5-18,15-33,23-50,2-5,2-12-4-12-3,0-6,2-9,4-1-5,4-10,0-13-3-2-6,1-8,4,0-3,0-7-3-8-2,0-5,2-6,3-8,13-14,27-21,40-3,6-4,11-7,17-1,4-3,8-4,12-2,8,0,17-4,25-3,5-6,10-9,16-4,11-10,21-14,33-4,8-9,16-12,25,0,2-1,5,1,7,5,3,11,1,15-2Z"/><path class="cls-17" d="M338.65,458.47c-2,2-2,7-6,7,0-5-3-9-4-14-3,4-7,9-13,9-4,0-5-5-5-8,0-10,5-19,8-29v-7c-1-7-6-13-7-20,0-14,3-28,1-42-3-14-2-26,1-40,2-13,2-25,4-38,0-1,1-3,3-2,3,2,3,7,5,7,3,0,1-7,6-7,1,4,3,8,4,13,4-3,8-13,13-8,0,11-2,23-3,34,0,9,1,19,1,28,1,10,7,19,7,29l-3,30c-1,4-1,9-2,13,0,6-1,12-1,18,0,3-2,6-2,9,0,7,1,13-1,20,0,1,1,5-1,5-3-1-3-5-5-7Z"/><path class="cls-17" d="M321.82,294l-2.3,39.81c-.7,12.16-2.19,23.28,4.26,34.15,3.28,5.51,4.76,10.61,4.17,17.05-.53,5.7-2.07,11.24-2.95,16.89a43.21,43.21,0,0,0-.23,14.17c1.12,6.47,4.08,12.36,3.39,19.06-.33,3.2,4.67,3.18,5,0,.58-5.63-1.15-10.71-2.58-16.08-1.65-6.21-1.48-12-.35-18.23,1.75-9.79,4.89-20.07.89-29.74-2.53-6.12-6.65-10.57-7.27-17.48-.56-6.2.26-12.6.61-18.79L326.82,294c.18-3.22-4.82-3.21-5,0Z"/><path class="cls-4" d="M322,289.12a419,419,0,0,0,1.65,77.42c.66,5.67,1.71,11.39,1.7,17.11,0,6-1.6,11.89-2.18,17.87-1.2,12.22,3.16,24.58-1,36.5-.27.76.94,1.09,1.2.34,3.84-10.92.55-22.08.85-33.28.16-6,1.78-11.88,2.26-17.87.51-6.28-.57-12.51-1.32-18.72a418.53,418.53,0,0,1-1.88-79.37c.06-.8-1.19-.8-1.25,0Z"/><path class="cls-4" d="M330.73,293.55c10.48,9.36,4,24,3.32,35.76-.69,12.07,5.11,23.37,4.66,35.43-.24,6.39-1.76,12.65-2.2,19a131.12,131.12,0,0,0,.31,17.39c.78,12.24,1.74,24.85-4.24,36-.38.71.7,1.34,1.08.63,5.54-10.38,5.33-21.91,4.63-33.35-.41-6.63-1-13.27-.59-19.91.42-7.29,2.33-14.44,2.29-21.77,0-6.19-1.61-12.18-2.94-18.19a57.24,57.24,0,0,1-.7-23.24c1.69-9.81,3.58-21.28-4.74-28.71-.6-.54-1.48.34-.88.88Z"/></g><g id="kopp"><ellipse class="cls-15" cx="385.05" cy="94.22" rx="49.77" ry="45.3"/><circle class="cls-18" cx="385.65" cy="94.94" r="35.06"/><rect class="cls-15" x="425.12" y="84.65" width="42.97" height="21.77" rx="10.89" ry="10.89"/></g><g id="kvast"><path class="cls-19" d="M346.35,322.35c-1.3-1.72-5.06-6.57-8.45-10.74-3.87-4.76-4.66-14.12-2.31-14.93s6.08,1.25,8.4,8a94.45,94.45,0,0,1,2.39,12.57C346.71,320.71,348,324.51,346.35,322.35Z"/><path class="cls-19" d="M312.21,298.74c-2.32-2.53-9.1-9.65-15.23-15.76-7-7-7.08-21.74-2.23-23.41s12,1,15.57,11.38c1.35,3.93,2.7,16.28,2.77,19.63C313.2,296.06,315.14,301.92,312.21,298.74Z"/><path class="cls-19" d="M344.47,316.85c-1.08,1.86-4.09,7.22-6.62,12-2.89,5.41-11.21,9.77-12.87,7.91s-1.2-6.09,4.11-10.84a93.89,93.89,0,0,1,10.66-7.07C342.82,317.16,345.83,314.51,344.47,316.85Z"/><path class="cls-19" d="M346.55,320.23c.65,2,2.58,7.88,4.39,12.95C353,339,350.62,348,348.13,348s-5.31-3.21-5.25-10.33A95.8,95.8,0,0,1,344.82,325C345.66,321.66,345.74,317.65,346.55,320.23Z"/><path class="cls-19" d="M342.54,320.3c1.83-1.14,7-4.44,11.47-7.44,5.1-3.41,14.49-3.34,15.08-.93s-1.8,5.94-8.73,7.63a92.44,92.44,0,0,1-12.73,1.23C344.15,320.81,340.24,321.72,342.54,320.3Z"/><path class="cls-19" d="M348.89,281.56a126.89,126.89,0,0,0,23.73-2.46c11.84-3.38,18.81,5.73,14.33,12.85-4.14,6.31-9.43,7.5-16.52,2.9a143.11,143.11,0,0,0-14.76-8.8C351.15,283.49,344.29,281.58,348.89,281.56Z"/><path class="cls-19" d="M312,297.71c-3.4.5-13.1,2.1-21.59,3.74-9.7,1.88-22-6.37-20.62-11.32s7.58-9.36,18.16-6.48c4,1.09,15,6.92,17.8,8.75C310.29,295.38,316.22,297.07,312,297.71Z"/><path class="cls-20" d="M348.35,277c-3.58-.57-13.86-2-23-3-10.42-1.12-18.11-14.41-14.24-19.49s12.23-7.94,21.05-1.21c3.36,2.56,11,12.71,12.83,15.68C347.93,273.88,352.84,277.74,348.35,277Z"/><path class="cls-20" d="M353.11,280.45c1.71,2.45,6.75,9.37,11.34,15.33,5.25,6.8,3.57,19.55-.82,20.43s-10.29-2.25-12.16-11.59c-.71-3.55-.42-14.34-.08-17.24C351.93,282.65,351,277.38,353.11,280.45Z"/><path class="cls-19" d="M351.37,278.23c-1.8-4.09-7.19-15.76-12.31-25.94-5.85-11.63,4.51-27.24,13.17-26s17.78,8.43,15.93,21.54c-.71,5-7.39,18.79-9.66,22.36C354.79,276,353.62,283.37,351.37,278.23Z"/><path class="cls-21" d="M289.71,348.82c13.68-44.78,41.6-75.88,62.43-69.51"/><path class="cls-20" d="M353,238.8,350.68,270c-.12,1.61,2.38,1.6,2.5,0l2.36-31.22c.12-1.6-2.38-1.6-2.5,0Z"/><path class="cls-20" d="M353.78,257.62a38.36,38.36,0,0,1,8.53-7.9c1.32-.89.08-3.06-1.26-2.16a40.51,40.51,0,0,0-9,8.29c-1,1.25.76,3,1.77,1.77Z"/><path class="cls-20" d="M353.94,253.92a62.85,62.85,0,0,0-8.18-11.59c-1.07-1.21-2.83.57-1.76,1.77a59.71,59.71,0,0,1,7.78,11.08c.77,1.41,2.93.15,2.16-1.26Z"/><path class="cls-19" d="M340.83,269.69A83.46,83.46,0,0,1,320,258.18c-.64-.48-1.26.6-.63,1.08a84.18,84.18,0,0,0,21.12,11.63c.76.29,1.08-.92.34-1.2Z"/><path class="cls-19" d="M329.64,264.26A6.9,6.9,0,0,1,329,258c.28-.75-.93-1.08-1.21-.33a8.08,8.08,0,0,0,.76,7.23c.43.68,1.51.06,1.08-.63Z"/><path class="cls-19" d="M331.1,267.38l-5.34.9c-.79.13-.45,1.33.34,1.2l5.33-.9c.79-.13.46-1.34-.33-1.2Z"/><path class="cls-22" d="M298.74,325.29c7-13.11,28.31-15.36,47.59-5"/><path class="cls-19" d="M353.43,289.35a53.12,53.12,0,0,0,5.9,19.27c.37.71,1.45.08,1.08-.63a51.45,51.45,0,0,1-5.73-18.64c-.09-.79-1.34-.8-1.25,0Z"/><path class="cls-19" d="M358.64,298.84l3.38,2.72c.62.5,1.51-.38.88-.89L359.52,298c-.62-.5-1.51.38-.88.89Z"/><path class="cls-20" d="M358.78,282.88a116.84,116.84,0,0,0,24.72,5.47c.8.09.79-1.16,0-1.25a115,115,0,0,1-24.39-5.43c-.76-.26-1.09.95-.33,1.21Z"/><path class="cls-20" d="M369.33,286.3a17.66,17.66,0,0,1,6.38,5.85c.44.67,1.53.05,1.08-.63a19,19,0,0,0-6.83-6.3c-.7-.38-1.33.7-.63,1.08Z"/><path class="cls-20" d="M378.8,287.81l4.11-4.56c.54-.59-.34-1.48-.88-.88l-4.11,4.56c-.54.59.34,1.48.88.88Z"/><path class="cls-20" d="M297.11,270.51a42.35,42.35,0,0,0,9.43,16.65c.54.59,1.43-.29.88-.88a41,41,0,0,1-9.1-16.1.63.63,0,0,0-1.21.33Z"/><path class="cls-20" d="M303.22,282.15a27.66,27.66,0,0,1,3.24-9,.63.63,0,0,0-1.08-.63,28.67,28.67,0,0,0-3.37,9.31c-.14.79,1.07,1.12,1.21.33Z"/><path class="cls-20" d="M276.06,293.25a37.54,37.54,0,0,1,23.54-1.64c.79.2,1.12-1,.34-1.2a38.67,38.67,0,0,0-24.22,1.64c-.73.29-.41,1.5.34,1.2Z"/><path class="cls-20" d="M288.39,299.45a10.22,10.22,0,0,1,3.62-8.54c.61-.53-.28-1.41-.88-.88a11.39,11.39,0,0,0-4,9.42c.05.8,1.3.8,1.25,0Z"/></g><g id="kvast-2" data-name="kvast"><path class="cls-19" d="M329.07,312.84c.05,1.2.11,4.62.05,7.63,0,3.38,4.69,7.57,6.79,7s3.83-3.06,1.81-6.81c-.74-1.44-4.35-5.06-5.5-5.93C330.39,313.29,329,311.34,329.07,312.84Z"/><path class="cls-19" d="M318.65,335c-.08,1.83-.42,7-.78,11.6-.26,5.12,6.93,11.66,10.29,11.35s6.62-3.7,3.91-9.92c-1-2.41-6.47-8.45-8.32-9.86C320.86,335.74,318.74,332.67,318.65,335Z"/><path class="cls-19" d="M331,315.72c-2-.24-7.55-1-12.54-1.93-5.72-1-14.79-.13-14.67,1.14s3.19,3.05,10.06,3.15a96.74,96.74,0,0,0,12.34-1.16C329.51,316.34,333.44,316,331,315.72Z"/><path class="cls-19" d="M330.54,313.55c-.74-1.06-2.85-4.05-4.7-6.64-2-2.94-10.25-5.25-12.26-4.39s-1.94,3.19,2.9,5.94a92.52,92.52,0,0,0,9.72,4C329,313.4,331.48,314.87,330.54,313.55Z"/><path class="cls-19" d="M327.39,315.22c2.1-.31,8.14-1.27,13.45-2.4,6-1.1,13.7-6.76,12.88-8.08s-4.94-.75-11.69,2.4c-2.58,1.27-9.34,4.86-11,5.73C328.29,314.4,324.75,315.61,327.39,315.22Z"/><path class="cls-19" d="M359.16,326.26A84.64,84.64,0,0,0,373,317.77c7.18-5,14.87-26.37,9.69-23.47-5,2.7-15.22,10.93-20,17.38a30.93,30.93,0,0,0-3.93,10.55C358.43,324.91,357,327.35,359.16,326.26Z"/><path class="cls-19" d="M319.06,335.49c-2.52.92-9.57,3.36-15.31,5.59-6.7,2.47-7.83,10.76-4.42,12.14s8.69.64,13-4a67.06,67.06,0,0,0,5.72-9.45C319.25,337,322.21,334.34,319.06,335.49Z"/><path class="cls-20" d="M355.24,331.25a157.82,157.82,0,0,1-14.88,10.51c-6.46,4.05-4.75,12.64-.31,14.7s10.77,2.18,14-5c1.22-2.71,2.36-11.89,2.34-14.34C356.38,333.11,358.25,328.77,355.24,331.25Z"/><path class="cls-20" d="M357.2,327.2c.16-2.1.7-8.09,1.36-13.38.9-6.23-7.57-9.57-11.85-7.31s-7,6.16-3.18,10.73c1.49,1.68,7.39,6.16,9,7.44C355.32,326.6,357,329.85,357.2,327.2Z"/><path class="cls-19" d="M356.93,329.2a172.77,172.77,0,0,1,2.23,20.72c.79,9.12,12.24,21.17,17.54,17.74,5.35-3.64,10.26-17.19,4.78-27.33-2-4.09-12.21-9.68-15.6-10.31C360.63,328.52,356.21,325.48,356.93,329.2Z"/><path class="cls-21" d="M273,319.21c19.38,10.12,37.23,13.73,51.76,15.4,14.54,1.3,25.76.66,32.23-6.35"/><path class="cls-20" d="M375.38,354.11A75.19,75.19,0,0,0,362,332.63c-.92-1-2.88.58-2,1.56a76.13,76.13,0,0,1,13.45,21.38c.68,1.62,2.54.17,1.87-1.46Z"/><path class="cls-20" d="M366.67,342.49a35,35,0,0,0,9.54,2.05c1.45.09,2-2.73.52-2.74a31.25,31.25,0,0,1-9-1.56c-1.41-.43-2.41,1.76-1,2.25Z"/><path class="cls-20" d="M366.82,343.11a53.28,53.28,0,0,1-1.42,11.22c-.35,1.51,1.79,2.21,2.16.64a60,60,0,0,0,1.59-12.25c0-1.59-2.31-1.12-2.33.39Z"/><path class="cls-19" d="M352.24,337.91a51.7,51.7,0,0,0-9.14,13.66c-.23.53.82,1,1,.44a51.83,51.83,0,0,1,9.07-13.56c.47-.54-.51-1.07-1-.54Z"/><path class="cls-19" d="M346.68,345.51a6,6,0,0,0,2.7,4.63c.59.43,1.25-.31.67-.74a4.86,4.86,0,0,1-2.21-3.76c0-.61-1.18-.73-1.16-.13Z"/><path class="cls-19" d="M347,342.52l-4,1.32c-.68.21-.15,1,.53.83l4-1.29c.7-.23.19-1.1-.51-.86Z"/><path class="cls-22" d="M294,328.1c12.46,3.43,27.3-2.23,36.31-14.47"/><path class="cls-19" d="M354.21,322.11a24.52,24.52,0,0,1-5.36-10.89c-.11-.55-1.5,0-1.39.51a25.16,25.16,0,0,0,5.55,11c.38.48,1.58-.16,1.2-.64Z"/><path class="cls-19" d="M353.55,315.83c.42-1,.85-2,1.28-3,.28-.66-1-.62-1.31,0-.42,1-.85,2-1.26,3-.27.63,1,.65,1.29,0Z"/><path class="cls-20" d="M361.34,323.42c4.87-5.74,10.6-11.93,17.12-19.2.72-.81-.06-1.33-.79-.53C371.05,311,365.24,317.27,360.3,323c-.54.63.5,1,1,.39Z"/><path class="cls-20" d="M368.16,315.23a18.27,18.27,0,0,0,2.66-7.74c.06-.72-1.3-.28-1.35.43a16.3,16.3,0,0,1-2.36,7c-.44.73.6,1.05,1.05.3Z"/><path class="cls-20" d="M373.69,308.82q2.73-.46,5.4-1c.8-.14,1.39-1.53.58-1.37q-2.67.54-5.42,1c-.82.16-1.38,1.42-.56,1.29Z"/><path class="cls-20" d="M325.27,351.89a18.35,18.35,0,0,1-2.73-10.08c0-.51-1.17-.53-1.19,0A18.76,18.76,0,0,0,324.23,352c.28.48,1.32.36,1-.13Z"/><path class="cls-20" d="M321.37,345.5a37.32,37.32,0,0,0,6.92,3.26c.68.25,1-.51.29-.75a33.1,33.1,0,0,1-6.43-3c-.58-.35-1.36.17-.78.53Z"/><path class="cls-20" d="M301.22,350.21c5.72-1.7,10.65-4.15,14.42-7.66.41-.39-.49-.94-.9-.55a34.22,34.22,0,0,1-14,7.47c-.63.18-.17.92.47.74Z"/><path class="cls-20" d="M303,343a12.92,12.92,0,0,0,7.75,2.57c.74,0,.62-.75-.12-.77a11.27,11.27,0,0,1-6.72-2.21c-.5-.4-1.42,0-.91.41Z"/></g></g></svg>
