<svg xmlns="http://www.w3.org/2000/svg" viewBox="0 0 500 700"><defs><style>.cls-1{fill:#14212f;}.cls-2{fill:#f6f6f6;stroke:#5f7c3e;stroke-width:8px;}.cls-10,.cls-2,.cls-8,.cls-9{stroke-miterlimit:10;}.cls-3{fill:#cec4e2;}.cls-4{fill:#322e65;}.cls-5{fill:#7d6eb0;}.cls-6{fill:#72a9b7;}.cls-7{fill:#2d2e83;}.cls-8{fill:#ededed;}.cls-10,.cls-8,.cls-9{stroke:#14212f;}.cls-9{fill:#dadada;}.cls-10{fill:none;}</style></defs><title>penis</title><g id="speil"><rect id="vegg" class="cls-1" width="500" height="490.68"/><rect id="speil-2" data-name="speil" class="cls-2" x="129.26" y="95.53" width="139.52" height="368.53" rx="12" ry="12"/><rect class="cls-1" x="132.65" y="226.31" width="132.49" height="40.59"/><rect class="cls-1" x="132.65" y="98.81" width="133.49" height="168.1" rx="12" ry="12"/><polygon class="cls-3" points="249.93 215.82 211.65 189.13 221.3 177.48 254.88 209.85 249.93 215.82"/><polygon class="cls-3" points="154.41 223.98 168.75 179.56 182.71 185.38 164.65 228.25 154.41 223.98"/><polygon class="cls-3" points="223.35 246.5 239.75 202.8 253.42 209.27 230.36 249.82 223.35 246.5"/><polygon class="cls-3" points="152.47 270.34 154.3 223.7 164.65 223.7 160.17 271.28 152.47 270.34"/><polygon class="cls-3" points="159.33 341.94 144.64 334.7 168.5 261.86 199.08 276.91 159.33 341.94"/><circle class="cls-3" cx="151.38" cy="339.51" r="8.23"/><polygon class="cls-3" points="176.87 397.22 169.99 402.17 144.64 343.64 159.73 337.57 176.87 397.22"/><polygon class="cls-3" points="211.19 411.33 202.72 411.33 194.32 274.38 223.22 271.4 211.19 411.33"/><ellipse class="cls-3" cx="196.14" cy="270.35" rx="27.51" ry="11.15"/><path class="cls-3" d="M170.8,265.18c3.22,0,3.22-5,0-5s-3.22,5,0,5Z"/><path class="cls-3" d="M216,274H175.15c-4.21,0-7.66-4-7.66-8.93L180.88,227l-13.39-43.29c0-4.91,3.45-8.94,7.66-8.94H216c4.22,0,7.67,4,7.67,8.94L213.86,227l9.79,38.05C223.65,270,220.2,274,216,274Z"/><circle class="cls-4" cx="207.8" cy="198.2" r="7.72"/><circle class="cls-4" cx="181.01" cy="198.2" r="7.72"/><circle class="cls-5" cx="179.52" cy="198.2" r="2.85"/><circle class="cls-5" cx="206.31" cy="198.2" r="2.85"/><path class="cls-3" d="M211.19,415.15v-3.82h-8.47c-2.92,1.66-3.11,14.67,0,13.4,3.63-1.49,22.36,1.16,29.7,0Z"/><path class="cls-3" d="M172.22,405.27l-2.23-3.1,6.88-4.95c3.33-.35,11.08,10.11,7.82,10.89-3.83.91-17.49,14-24.12,17.33Z"/><ellipse class="cls-1" cx="209.99" cy="136.38" rx="9.23" ry="15.75" transform="translate(-26.57 218.44) rotate(-52.13)"/><ellipse class="cls-1" cx="215.38" cy="154.08" rx="9.23" ry="15.75" transform="translate(-48.18 128.33) rotate(-30)"/><ellipse class="cls-1" cx="192.77" cy="139.63" rx="15.75" ry="9.23" transform="translate(-42.27 177.21) rotate(-45)"/><ellipse class="cls-1" cx="197.96" cy="132.15" rx="13.25" ry="7.99" transform="translate(-35.46 178.68) rotate(-45)"/><circle class="cls-1" cx="192.4" cy="154.29" r="13.25"/><circle class="cls-1" cx="203.12" cy="161.16" r="13.25"/><circle class="cls-1" cx="203.12" cy="154.08" r="13.25"/><circle class="cls-1" cx="215.38" cy="177.27" r="13.25"/><circle class="cls-1" cx="188.37" cy="175.91" r="13.25"/><circle class="cls-1" cx="185.54" cy="161.16" r="13.25"/><path class="cls-6" d="M191.36,123.86c-4.19,1.92-6.62,4.83-8.4,9-1.65,3.87-1.49,2.84-5.71,6.1a11.65,11.65,0,0,0-1.32.88,8.8,8.8,0,0,0-2.51,4.77c-1,5.28,2.21,11.2,3.88,16,1,2.92,1.87,6,3.08,8.8.91,2.12,3.58,4.28,4.06,6.4.18.79,1.39.46,1.21-.33a6.37,6.37,0,0,0-1.74-3c-2-2.45-2.9-5-3.93-7.94-1.75-5.08-4.18-10.35-5.17-15.65-.91-4.83,1.09-7,5.15-9.81a8.43,8.43,0,0,0,2.63-2.31c1.19-1.8,1.52-4.06,2.58-5.93a14.77,14.77,0,0,1,6.82-6c.73-.33.1-1.41-.63-1.08Z"/><path class="cls-6" d="M217.75,133.65c2.46,2.54,5.24,5.34,6.27,8.82,1.09,3.68-.42,6.9-1.63,10.26-2,5.56-.28,14.11-5.8,17.63-.67.43-.05,1.51.64,1.08a9.74,9.74,0,0,0,4.34-6.46c1-4.55,1-8.93,2.6-13.4,2.93-7.92.09-13-5.54-18.81-.56-.58-1.44.3-.88.88Z"/><path class="cls-6" d="M210.79,179.72c2,1.13,4.18,2.36,6.53,2a4.48,4.48,0,0,0,3.73-3.18.62.62,0,0,0-1.2-.33c-1.15,4-6.07,1.82-8.43.47a.63.63,0,0,0-.63,1.08Z"/><path class="cls-6" d="M199.67,119.6a13.3,13.3,0,0,1,10.25,4.49c.54.59,1.42-.29.88-.89a14.57,14.57,0,0,0-11.13-4.85.63.63,0,0,0,0,1.25Z"/><path class="cls-6" d="M179.75,177.16a6.79,6.79,0,0,0,9.45,4.18c.72-.37.09-1.44-.63-1.08a5.52,5.52,0,0,1-7.61-3.43.63.63,0,0,0-1.21.33Z"/><path class="cls-6" d="M209.66,168.33a6.69,6.69,0,0,0,2.25,5.08c.6.54,1.49-.34.89-.88a5.42,5.42,0,0,1-1.89-4.2.63.63,0,0,0-1.25,0Z"/><path class="cls-6" d="M219,143.28a11.68,11.68,0,0,0-.7,12.12c.37.71,1.45.08,1.08-.63a10.4,10.4,0,0,1,.7-10.86c.46-.67-.62-1.29-1.08-.63Z"/><path class="cls-6" d="M178.89,134l2.62-6c.31-.73-.76-1.37-1.08-.63l-2.62,6c-.32.73.76,1.37,1.08.63Z"/><path class="cls-1" d="M219.74,156.37a18.43,18.43,0,0,1-4.87,16.5c-2.22,2.32,1.31,5.86,3.54,3.53A23.73,23.73,0,0,0,224.56,155c-.62-3.15-5.44-1.81-4.82,1.33Z"/><ellipse class="cls-1" cx="191.15" cy="130.18" rx="12.25" ry="5.59" transform="translate(-38.82 154.66) rotate(-40.33)"/><polygon class="cls-3" points="362.24 347.02 301.86 304.91 317.09 286.54 370.06 337.6 362.24 347.02"/><polygon class="cls-3" points="211.58 359.88 234.19 289.82 256.21 299 227.73 366.62 211.58 359.88"/><polygon class="cls-3" points="320.31 395.4 346.18 326.48 367.74 336.68 331.38 400.64 320.31 395.4"/><polygon class="cls-3" points="208.51 433 211.41 359.44 227.73 359.44 220.66 434.5 208.51 433"/><polygon class="cls-3" points="219.33 545.95 196.17 534.53 233.81 419.63 282.03 443.38 219.33 545.95"/><circle class="cls-3" cx="206.79" cy="542.11" r="12.98"/><polygon class="cls-3" points="247 633.15 236.14 640.95 196.17 548.62 219.97 539.06 247 633.15"/><polygon class="cls-3" points="301.14 655.4 287.77 655.4 274.52 439.39 320.11 434.69 301.14 655.4"/><ellipse class="cls-3" cx="277.39" cy="433.03" rx="43.39" ry="17.58"/><path class="cls-3" d="M237.42,423.42c3.22,0,3.23-5,0-5s-3.22,5,0,5Z"/><path class="cls-3" d="M308.69,438.76h-64.4c-6.65,0-12.09-6.34-12.09-14.1l21.13-60L232.2,296.37c0-7.76,5.44-14.1,12.09-14.1h64.4c6.65,0,12.09,6.34,12.09,14.1l-15.44,68.28,15.44,60C320.78,432.42,315.34,438.76,308.69,438.76Z"/><path class="cls-3" d="M301.14,661.43v-6H287.77c-4.59,2.61-4.89,23.14,0,21.14,5.74-2.35,35.28,1.83,46.85,0Z"/><path class="cls-3" d="M239.66,645.85l-3.52-4.9,10.86-7.8c5.26-.55,17.48,15.94,12.34,17.17-6,1.44-27.59,22.07-38,27.34Z"/><rect class="cls-3" x="271.11" y="260.45" width="15.77" height="29.24" rx="5" ry="5"/><path class="cls-3" d="M306.4,236c0,23.87-11.29,36.31-25.22,36.31S256,259.84,256,236s12.34-30.73,26.27-30.73S306.4,212.09,306.4,236Z"/><ellipse class="cls-3" cx="322.87" cy="403.47" rx="11.99" ry="7.49" transform="translate(-172.86 549.36) rotate(-67.73)"/><ellipse class="cls-1" cx="288.21" cy="293.7" rx="9.03" ry="15.28"/><ellipse class="cls-1" cx="269.53" cy="211.92" rx="19.32" ry="8.82" transform="translate(-73.1 224.82) rotate(-40.33)"/><ellipse class="cls-3" cx="218.12" cy="438.76" rx="7.49" ry="10.22"/><ellipse class="cls-1" cx="299.24" cy="221.72" rx="14.57" ry="24.84" transform="translate(-59.47 321.85) rotate(-52.13)"/><ellipse class="cls-1" cx="307.75" cy="249.63" rx="14.57" ry="24.84" transform="translate(-83.58 187.32) rotate(-30)"/><ellipse class="cls-1" cx="272.08" cy="226.83" rx="24.84" ry="14.57" transform="translate(-80.7 258.83) rotate(-45)"/><ellipse class="cls-1" cx="280.27" cy="215.04" rx="20.9" ry="12.6" transform="translate(-69.97 261.16) rotate(-45)"/><circle class="cls-1" cx="271.5" cy="249.96" r="20.9"/><circle class="cls-1" cx="288.4" cy="260.8" r="20.9"/><circle class="cls-1" cx="288.4" cy="249.63" r="20.9"/><circle class="cls-1" cx="307.75" cy="286.21" r="20.9"/><circle class="cls-1" cx="265.14" cy="284.06" r="20.9"/><circle class="cls-1" cx="260.67" cy="260.8" r="20.9"/><path class="cls-1" d="M278.74,452.61c9.73-7.44,20.29-27.46,8.2-37.52-.62-.51-1.51.37-.89.88,11.41,9.5,1.18,28.59-7.94,35.56-.63.49,0,1.57.63,1.08Z"/><path class="cls-7" d="M195.59,282.81a20.89,20.89,0,0,1-.27-6.36c.09-.8-1.16-.8-1.25,0a22.09,22.09,0,0,0,.31,6.69c.16.79,1.37.46,1.21-.33Z"/><path class="cls-7" d="M188.29,281.64c3.53,3.36,9.93,4.58,12.17-.88.31-.74-.9-1.07-1.2-.33-1.88,4.56-7.34,2.94-10.09.33-.58-.56-1.46.32-.88.88Z"/><path class="cls-7" d="M195.35,238.75a3,3,0,0,0,4.45-.43c.46-.65-.62-1.28-1.08-.63a1.67,1.67,0,0,1-2.48.17c-.57-.56-1.46.32-.89.89Z"/><path class="cls-3" d="M214.53,145.42c0,15.13-7.16,23-16,23s-16-7.89-16-23,7.82-19.48,16.65-19.48S214.53,130.28,214.53,145.42Z"/><rect class="cls-3" x="192.15" y="160.94" width="10" height="18.54" rx="5" ry="5"/><ellipse class="cls-3" cx="157.56" cy="276.45" rx="4.75" ry="6.48"/><ellipse class="cls-3" cx="224.97" cy="251.61" rx="7.6" ry="4.75" transform="translate(-93.13 364.45) rotate(-67.73)"/><g id="briller"><circle class="cls-8" cx="203.14" cy="146.19" r="4.68"/><circle class="cls-9" cx="189.14" cy="146.19" r="4.68"/><line class="cls-10" x1="193.81" y1="146.19" x2="198.46" y2="146.19"/><line class="cls-10" x1="207.81" y1="146.19" x2="215.38" y2="141.12"/><line class="cls-10" x1="184.46" y1="146.19" x2="181.38" y2="143.66"/></g></g><g id="strandliv"><path class="cls-6" d="M273.21,220c-.69,4.84-4.4,9.65-2.2,14.58,2.39,5.36,8.62,7,10.46,13,4.13,13.5-14,21.29-13,34.73.11,1.6,2.61,1.61,2.5,0-.91-12.67,14.59-19.19,13.56-32a16.59,16.59,0,0,0-6-11.35c-3.15-2.73-6.41-5-5.39-9.82.62-2.91,2.11-5.45,2.53-8.43.22-1.58-2.19-2.26-2.41-.67Z"/><path class="cls-6" d="M292.1,207.09c8.29-3.05,16.92,1.06,20.77,8.84,3.7,7.45.22,15.26,3.06,22.62,2.56,6.66,10.06,9.56,8.38,17.81-.68,3.37-2.41,6.44-3,9.84-.47,2.89.71,8-2.33,9.7-1.41.78-.15,2.94,1.26,2.16,2.34-1.29,3-3.31,3.21-5.86a68.88,68.88,0,0,1,2.84-13.68c1-3.49,1.24-6.88-.45-10.21-2-4-6.14-6.63-7.63-10.95-1.72-5-.06-10.52-.94-15.7a23.82,23.82,0,0,0-5-11.17,18.74,18.74,0,0,0-20.87-5.81c-1.5.55-.85,3,.66,2.41Z"/><path class="cls-6" d="M297.66,267.56c-4.18,8.85-9.64,25.37,5,27,4.31.49,8,.31,11.77,2.79,2,1.3,3.69,2.34,6.1,1.68,4.56-1.24,9.32-5.89,10.62-10.35a1.25,1.25,0,0,0-2.41-.67c-1.78,6.13-8,9.34-13.66,6.75a21.4,21.4,0,0,0-8.07-2.41c-5.81-.44-11.52-1.05-11.62-8.35-.08-5.19,2.28-10.64,4.44-15.22.68-1.45-1.47-2.72-2.16-1.26Z"/><path class="cls-6" d="M253.63,219.68c-3.55,4.14-7.34,8.68-7.42,14.43a10.9,10.9,0,0,0,1.68,6.14c2,3.16,6.5,5.35,5.86,9.75-.22,1.58,2.18,2.26,2.41.67.54-3.74-1.16-6.21-3.67-8.87-6.73-7.12-2.5-14.05,2.91-20.35,1-1.21-.72-3-1.77-1.77Z"/><path class="cls-6" d="M256.24,261a31,31,0,0,1-3.67,12.57c-1.38,2.5-3.34,4.66-4.46,7.3-1.4,3.28-1.25,6.52,1.1,9.26,1,1.23,2.81-.55,1.77-1.77-4.1-4.78,3-11.59,4.91-15.85A34.46,34.46,0,0,0,258.74,261c.14-1.6-2.36-1.59-2.5,0Z"/></g></svg>
