<svg xmlns="http://www.w3.org/2000/svg" viewBox="0 0 500 700"><defs><style>.cls-1{fill:#f3912e;}.cls-2{fill:#cce9f5;}.cls-3{fill:#72a9b7;}.cls-4{fill:#89cde5;}.cls-5{fill:#5f7c3e;}.cls-10,.cls-11,.cls-6,.cls-8{fill:none;stroke-miterlimit:10;}.cls-6{stroke:#5f7c3e;stroke-width:7px;}.cls-7{fill:#cec4e2;}.cls-8{stroke:#dedc00;}.cls-9{fill:#14212f;}.cls-10{stroke:#29235c;stroke-width:4px;}.cls-11{stroke:#312783;stroke-width:2px;}.cls-12{fill:#e5d438;}</style></defs><title>speil</title><g id="strandliv"><path class="cls-1" d="M500,366.37V243.49H2.41A4.51,4.51,0,0,1,0,245.56V700H500V399.46a4,4,0,0,1,0-.69v-32.4"/><rect id="himmel" class="cls-2" width="500" height="165.17"/><g id="hav"><rect class="cls-3" x="1.21" y="160.87" width="498.79" height="69.5"/><path class="cls-4" d="M0,195.24V230c.62,4.68,1.4,9.33,2,14H500V195.24Z"/><path class="cls-4" d="M3.21,194.91A89.58,89.58,0,0,1,65.8,153.65c-7.93.62-12.79,10.31-10.61,18s9.27,13,16.69,15.85c3.68,1.42,8.07,2.31,11.4.17,2.45-1.57,3.71-4.4,5.19-6.91,7.46-12.59,24.18-18.8,38.05-14.15-2.89-2.37-7.66-.92-9.67,2.24s-1.77,7.28-.56,10.82a23,23,0,0,0,23.09,14.94c13.56-1.24,22.61-13.86,31.68-24s24-19.19,35.48-11.81c-8.24,3.91-12.61,14.49-9.51,23.07s13.22,13.94,22.06,11.68c7.84-2,13.39-8.74,19.9-13.55a45.74,45.74,0,0,1,32.57-8.52c-5-2.38-11.24,2.31-11.71,7.79s3.46,10.61,8.32,13.2a21.65,21.65,0,0,0,24.5-3.41c3.34-3.21,5.52-7.42,8.24-11.18,4.61-6.35,10.76-11.4,16.85-16.35,6.94-5.64,17.24-11.3,24-5.4-5.14,3.42-5.67,11.18-2.82,16.65s8.13,9.19,13.21,12.69c4,2.77,8.83,5.67,13.47,4.16,2.68-.86,4.68-3,6.62-5.08,9.25-9.72,21.91-18.58,35.08-16a13.87,13.87,0,0,0,7.77,25c10.38.41,17.29-10,24.86-17.11a47.93,47.93,0,0,1,34.83-12.81A18.62,18.62,0,0,0,489,194.15"/></g><g id="solstol"><path class="cls-5" d="M230.86,493.63c-30.85-18.66-59.75-44.69-84-77.13-6.19-8.36-5.35-16.65,1.34-18.12,57.09-13.2,109.61-39.56,159.35-72.15,5.86-3.8,16.32-3.89,23.41-.7,27.69,12.73,56.62,18.46,83.91,16.62,7-.52,8,3.92,2.48,10.44-47.29,54.59-99.17,102.89-159.08,141.19C251.24,498.34,238.76,498.48,230.86,493.63Z"/><path class="cls-5" d="M338.27,216.21c31.59-3,61.86-7.33,90.81-12.85,7.95-1.57,12.7,3.78,10.75,11.92Q423,285.71,410.15,349c-1.51,7.32-7.57,11.7-13.55,9.77q-33-10.32-66.73-22.74c-6.11-2.33-11.36-8.33-11.54-13.35a837.16,837.16,0,0,1,3.16-94.51C322,222.43,329.6,217.08,338.27,216.21Z"/><rect class="cls-5" x="326.89" y="380.09" width="11.03" height="66.74" transform="translate(359.56 -116.36) rotate(41.73)"/><rect class="cls-5" x="240.57" y="491.46" width="13.24" height="43.89"/><rect class="cls-5" x="400.12" y="359.2" width="9.93" height="49.86"/><line class="cls-6" x1="149.1" y1="413.46" x2="150.21" y2="455.43"/></g><polygon class="cls-7" points="391.7 331.68 379.79 281.58 396.29 279.08 400.16 330.4 391.7 331.68"/><polygon class="cls-7" points="306.41 289.55 337.35 248.38 349.81 259.48 315.55 297.68 306.41 289.55"/><polygon class="cls-7" points="349.13 337.4 395.92 315.88 401.61 331.57 352.06 345.45 349.13 337.4"/><polygon class="cls-7" points="288.11 336.4 306.64 289.64 317.29 293.42 295.71 340.18 288.11 336.4"/><polygon class="cls-7" points="228.96 393.39 222.18 376.65 295.33 334.19 309.45 369.05 228.96 393.39"/><circle class="cls-7" cx="224.2" cy="383.35" r="9.08"/><polygon class="cls-7" points="202.8 448.49 193.5 447.51 215.62 380.69 232.5 386.79 202.8 448.49"/><polygon class="cls-7" points="229.16 480.21 222.18 473.99 315.85 355.06 341.83 373.83 229.16 480.21"/><ellipse class="cls-7" cx="311.84" cy="355.97" rx="12.3" ry="30.35" transform="translate(-161.38 351.73) rotate(-48.27)"/><path class="cls-7" d="M296.62,335.74c3.21,0,3.22-5,0-5s-3.23,5,0,5Z"/><path class="cls-7" d="M341.22,365.78l-40.79-19.1c-4.22-2-5.78-7.61-3.48-12.52l31.19-31.75L335,252.88c2.29-4.91,7.62-7.31,11.84-5.34l40.79,19.1c4.22,2,5.78,7.61,3.48,12.52l-30,38.67-8,42.61C350.77,365.35,345.44,367.75,341.22,365.78Z"/><circle class="cls-1" cx="367.67" cy="285.93" r="10.24"/><circle class="cls-1" cx="345.14" cy="275.77" r="10.24"/><path class="cls-7" d="M226.54,481.5l3.64-2.14-4.76-8.06c-3.21-1.83-15.68,5.29-12.73,7.52,3.45,2.62,11.44,21.91,16.65,28.23Z"/><path class="cls-7" d="M193.05,451.7l.45-4.19,9.3,1c3,2.16,1.7,16.46-1.56,14.71-3.82-2.06-24.68-1.33-32.59-3.45Z"/><ellipse class="cls-7" cx="391.08" cy="277.98" rx="5.24" ry="9.64"/><ellipse class="cls-7" cx="337.33" cy="359.02" rx="15.83" ry="14.67"/><path class="cls-1" d="M352.93,284.53l5.59,2a5,5,0,0,0,6.15-3.5,5.13,5.13,0,0,0-3.49-6.15l-5.59-2a5,5,0,0,0-6.15,3.49,5.12,5.12,0,0,0,3.49,6.15Z"/><path class="cls-1" d="M350.11,265.74q2.88-6.14,5.41-12.42c1.2-3-3.63-4.27-4.82-1.32q-2.29,5.67-4.91,11.22c-1.36,2.89,2.95,5.43,4.32,2.52Z"/><path class="cls-1" d="M336.79,277.67a5.38,5.38,0,0,0-5.58,2.24,2.51,2.51,0,0,0,.89,3.42,2.58,2.58,0,0,0,3.43-.89c-.24.29-.27.34-.1.14s.15-.15-.14.09a1.75,1.75,0,0,1,.27-.16c.19-.1.18-.1,0,0s-.21.09,0,0,.21-.06-.2,0h.31c.28,0,.21,0-.19,0a2.5,2.5,0,0,0,1.33-4.83Z"/><path class="cls-1" d="M375.76,277.91a34.29,34.29,0,0,1,5.79-12.4c1.9-2.6-2.43-5.09-4.32-2.52a38.2,38.2,0,0,0-6.3,13.59c-.75,3.13,4.07,4.46,4.83,1.33Z"/><path class="cls-1" d="M373,296.18l1.11,1.11a2.5,2.5,0,1,0,3.53-3.54l-1.1-1.1a2.53,2.53,0,0,0-3.54,0,2.55,2.55,0,0,0,0,3.53Z"/><path class="cls-1" d="M301.84,333.66c4.8,1.58,8,5.69,11.88,8.72A55.56,55.56,0,0,0,324.67,349c8.21,3.8,17,6,25.75,8.14,3.13.76,4.46-4.06,1.33-4.82-9.35-2.27-18.91-4.56-27.48-9.08-7.56-4-13-11.76-21.11-14.43-3.06-1-4.37,3.82-1.32,4.82Z"/><path class="cls-1" d="M308.32,337.49c1.05,9.13,1.81,19.36-3.95,26.53-.8,1-1.59,2.69-.45,3.25a1.84,1.84,0,0,0,1,.1c5.07-.62,8.88-4.82,13.53-6.95a34.85,34.85,0,0,1,4.8-1.65l17.32-5"/><g id="ansikt"><rect class="cls-7" x="361.26" y="245.26" width="11.03" height="20.45" rx="5" ry="5"/><path class="cls-7" d="M384.41,226.26c0,16.7-7.89,25.4-17.64,25.4s-17.64-8.7-17.64-25.4,8.63-21.49,18.38-21.49S384.41,209.56,384.41,226.26Z"/><g id="hår"><circle class="cls-8" cx="358.09" cy="207.38" r="3.19"/><circle class="cls-8" cx="354.72" cy="207.82" r="3.19"/><circle class="cls-8" cx="350.55" cy="218.95" r="3.19"/><circle class="cls-8" cx="382.21" cy="218.03" r="3.19"/><circle class="cls-8" cx="379.82" cy="213.43" r="3.19"/><circle class="cls-8" cx="378.98" cy="217.95" r="3.19"/><circle class="cls-8" cx="383.51" cy="209.72" r="3.19"/><circle class="cls-8" cx="384.01" cy="214.29" r="3.19"/><circle class="cls-8" cx="379.46" cy="217.72" r="3.19"/><circle class="cls-8" cx="381.62" cy="215.09" r="3.19"/><circle class="cls-8" cx="377.03" cy="204.12" r="3.19"/><circle class="cls-8" cx="382.49" cy="216.47" r="3.19"/><circle class="cls-8" cx="383" cy="221.05" r="3.19"/><circle class="cls-8" cx="376.02" cy="210.87" r="3.19"/><circle class="cls-8" cx="380.83" cy="206.68" r="3.19"/><circle class="cls-8" cx="379.99" cy="211.19" r="3.19"/><circle class="cls-8" cx="355.91" cy="214.72" r="3.19"/><circle class="cls-8" cx="349.53" cy="214.48" r="3.19"/><circle class="cls-8" cx="353.24" cy="211.77" r="3.19"/><circle class="cls-8" cx="349.67" cy="210.43" r="3.19"/><circle class="cls-8" cx="352.43" cy="206.75" r="3.19"/><circle class="cls-8" cx="358.61" cy="207.54" r="3.19"/><circle class="cls-8" cx="355.03" cy="206.2" r="3.19"/><circle class="cls-8" cx="357.8" cy="202.52" r="3.19"/><circle class="cls-8" cx="363.46" cy="203.15" r="3.19"/><circle class="cls-8" cx="360.09" cy="203.59" r="3.19"/><circle class="cls-8" cx="368.39" cy="202.74" r="3.19"/><circle class="cls-8" cx="369.79" cy="208.26" r="3.19"/><circle class="cls-8" cx="368.2" cy="205.26" r="3.19"/><circle class="cls-8" cx="356.31" cy="205.26" r="3.19"/><circle class="cls-8" cx="354.9" cy="210.25" r="3.19"/><circle class="cls-8" cx="377.2" cy="204.86" r="3.19"/><circle class="cls-8" cx="365.31" cy="204.86" r="3.19"/><circle class="cls-8" cx="360.14" cy="202.74" r="3.19"/><circle class="cls-8" cx="363.97" cy="205.26" r="3.19"/><circle class="cls-8" cx="363.97" cy="201.45" r="3.19"/><circle class="cls-8" cx="369.14" cy="202.34" r="3.19"/><circle class="cls-8" cx="372.98" cy="204.86" r="3.19"/><circle class="cls-8" cx="372.98" cy="201.04" r="3.19"/><circle class="cls-8" cx="377.39" cy="202.34" r="3.19"/><circle class="cls-8" cx="378.8" cy="207.86" r="3.19"/></g><g id="hatt"><path class="cls-9" d="M354.6,202.32c0-4.4,6.32-8,14.1-8s14.1,3.57,14.1,8"/><line class="cls-10" x1="348.42" y1="202.43" x2="389.84" y2="202.95"/></g><g id="solbrille"><circle class="cls-9" cx="353.25" cy="225.81" r="6.65"/><circle class="cls-9" cx="371.46" cy="226.55" r="6.65"/><line class="cls-11" x1="378.11" y1="226.55" x2="383" y2="221.05"/><line class="cls-11" x1="357.8" y1="226.55" x2="371.46" y2="226.55"/></g></g><circle id="sol" class="cls-12" cx="88.77" cy="67.38" r="42.5"/></g></svg>
