<svg id="undervann" xmlns="http://www.w3.org/2000/svg" viewBox="0 0 500 700"><defs><style>.cls-1{fill:#14212f;}.cls-2{fill:#322e65;}.cls-3{fill:#ee7374;}.cls-4{fill:#cec4e2;}.cls-5{fill:#5f7c3e;}.cls-6{fill:#89cde5;}.cls-7{opacity:0.28;}</style></defs><title>undervanns</title><rect class="cls-1" width="500" height="700"/><g id="bobler"><path class="cls-2" d="M137.86,87c.44,15.81-14.61,32.69-33.69,35.38C85.1,124.76,70,107.85,70.48,87.19S86,49.63,104.17,51.88C122.36,54.49,137.42,71.24,137.86,87Z"/><path class="cls-2" d="M102,191.28c2.34,6.28-2.73,9.57-11.47,9.87-8.75.6-13.81-2.48-11.47-9.51s7.42-11.14,11.47-10.72C94.58,181,99.69,185,102,191.28Z"/><path class="cls-2" d="M79.07,153.93c-.86,10.95-9.19,18.54-18.64,18A19.69,19.69,0,0,1,41.8,154c-.86-10,7.48-17.47,18.63-17.9C71.59,135.54,79.92,143,79.07,153.93Z"/></g><g id="fisk"><path class="cls-3" d="M87.41,541.82c-5.8.47-11.68,3.92-16.58,9.83q-4.76-18.82-10.92-39.41c10.52.85,22.68,6.24,34.35,16.67A41.68,41.68,0,0,1,87.41,541.82Z"/><path class="cls-3" d="M180.68,527c2.11,2.62-1.85,9.73-11,20.19s-23.27,12.13-39.8.18-31.83-18.16-42.23-11.64c-10.48,5.91-16,11.29-14.85,1.9,1.13-9,8.36-16.37,18.12-13.69,9.84,2.21,22.17,2.38,35.43-8.79,13.27-10.9,25.32-16.74,35.08-8.61C171.13,514,178.56,524.43,180.68,527Z"/><path class="cls-4" d="M138.36,519c9.07,7,14.06,15.3,21.06,15.63-1.69,2.78-6.93,10-23.42,22.58-1.95,1.42.68-7.19-.36-19.33C141.85,526,141.13,521.21,138.36,519Z"/></g><g id="manet"><path class="cls-5" d="M299.53,333c1.37-1.44,0-4.55-2.06-3.47-2.89,1.52.89,3,1.8,3.49,2,1.16,4.22,6.09,5.72,8.46l9,14.23c4.29,6.8,8.41,14,14.21,19.7,13,12.66,28.43,7.74,42.55-.24,8.59-4.86,18.42-11,28.74-9.18,10.56,1.83,18,10.94,13.25,21.53-3.79,8.45-10.63,16-16.78,22.85-6.29,7-13.07,13.49-19.93,19.9-13,12.17-26.4,24.06-37.33,38.2-10.32,13.37-18.78,28.82-21.15,45.75-2.2,15.66,1.59,31.24,9.62,44.75,20.68,34.78,60.75,48.42,97.13,60.2.77.24,1.1-1,.34-1.21-31.1-10.06-64.2-20.88-86.51-46.15C327.65,560,320,545.38,318.42,529.5c-1.66-16.43,3.7-32.65,12-46.66,16.82-28.5,44.59-47.38,66.42-71.58a146.64,146.64,0,0,0,13.74-17.49c3.26-5,6.33-10.82,4.57-16.9-3.08-10.67-16.24-13.87-25.83-11.58-17.62,4.21-34.95,24.94-54,14.06-7.87-4.51-12.91-12.62-17.63-20.09q-8.71-13.8-17.42-27.62a.63.63,0,0,0-1-.13l-.64.6c-.55.58.33,1.47.89.89Z"/><path class="cls-5" d="M315.35,309.53c19.17,16.57,38.73,32.8,56.91,50.47,17.78,17.3,33.58,36.16,48.46,56,5.47,7.3,11.6,14.95,20.2,18.65,8.21,3.54,17.18,1.94,24.14-3.51,16-12.54,15.69-38.62,11.59-56.6-4.86-21.31-21-40.63-44.11-41.55-3.22-.13-3.21,4.87,0,5,20.15.81,34.28,17.82,38.9,36.25,4.22,16.83,5.4,45.41-12.56,55-19.1,10.25-33.15-15.27-42.65-27.51a434.9,434.9,0,0,0-42.44-47.23C356.18,337.61,337.35,322,318.88,306c-2.42-2.1-6,1.42-3.53,3.53Z"/><path class="cls-5" d="M336.29,291.76l28.07,30.32c6.71,7.25,14.13,17.88,24.66,19.49,8.43,1.28,16.25-4,21.18-10.4,6.8-8.84,8.76-20.23,13.91-29.93,5.88-11.09,17.24-20,30-13.86,12.25,5.84,17.06,19.27,16.93,32.06-.12,13.13-3.84,26.28-6.48,39.07l-8.42,40.67L437.54,489.3c-.17.78,1,1.12,1.2.33l17-82.38,8.82-42.6c2.59-12.53,5.87-25.14,7.26-37.88,1.23-11.16.29-23.1-6.95-32.18-5-6.32-12.78-11.17-21.12-10.48-23.3,1.94-23.68,33.46-35.49,47.43-4.95,5.87-12.55,10.43-20.46,8.52-7.21-1.74-12.42-7.88-17.24-13.09q-16.73-18-33.43-36.1c-.55-.59-1.43.3-.88.89Z"/><path class="cls-5" d="M300.52,328.87l67.29,63.55c18,17,42.37,35.19,47.42,60.91,5.75,29.21-15.88,54.23-31.49,76.31C368.6,551.05,359,574.56,362,601.23s18.3,50.51,40.61,65.21c1.34.89,2.6-1.28,1.26-2.16-22.29-14.68-37.31-38.95-39.63-65.64a88.75,88.75,0,0,1,6.23-41.3c5.22-12.69,13.43-23.83,21.46-34.84,14.31-19.63,30.21-42.63,25.95-68.3-4-24-24.48-41-41.18-56.79l-74.46-70.3c-1.17-1.11-2.94.66-1.76,1.76Z"/><path class="cls-5" d="M272.41,350.61c47.6,66.42,139.14,95,170.14,174.31a150.8,150.8,0,0,1,8,81.27c-.56,3.14,4.25,4.49,4.82,1.33,8.26-46.13-5-92.67-34.76-128.55-26.57-32-62.13-54.59-94.15-80.52-18.38-14.89-35.92-31.06-49.75-50.36-1.86-2.6-6.2-.1-4.32,2.52Z"/><path class="cls-5" d="M280.74,345.21c50.33,48.83,92.49,108.32,119,173.42,7,17.11,12.51,35.66,10.75,54.34-1.62,17.32-10,33.14-22,45.47-25.25,25.75-64.23,34.13-99.2,32.58-19.7-.87-41.07-7.64-50.48-26.51-4.43-8.89-4.82-19.17.24-27.87,4.87-8.37,13.67-14,23.52-13,.8.08.8-1.17,0-1.25-14.17-1.47-26.42,10.59-28.29,24.18-2.06,14.9,8,28.88,20.12,36.42,15.95,9.94,36.2,10.22,54.34,8.93,19-1.35,38.1-5.41,55.2-14.09,15.09-7.66,28.38-19.11,37.29-33.58,9.47-15.37,12.47-33.09,9.95-50.88-2.72-19.18-10.67-37.24-18.89-54.62A528.29,528.29,0,0,0,364,446.64a533.89,533.89,0,0,0-82.35-102.31c-.58-.56-1.46.32-.88.88Z"/><path class="cls-6" d="M243.83,359.44l20.55,18.32c3.94,3.51,8.12,7.14,13.26,8.31s11.48-1.14,12.93-6.22c1.2-4.24-1.34-8.67-4.43-11.82s-6.87-5.72-9.17-9.49-2.48-9.42,1.13-12S286.77,346,290,349s5.71,6.83,9.52,9,9.83,1.46,11.12-2.73c.93-3.05-1.13-6.23-3.56-8.31s-5.38-3.64-7.19-6.27a9.83,9.83,0,0,1,12.6-14.32c4.12,2.12,6.2,6.79,7.49,11.24s2.16,9.21,5,12.86,8.56,5.63,12.19,2.74c3.47-2.78,3.07-8.38.77-12.19-2.08-3.46-5.31-6.05-8.55-8.45s-6.61-4.74-9.14-7.88-4.15-7.3-3.25-11.23,4.86-7.24,8.82-6.45c2.72.54,4.81,2.77,6.13,5.21s2.06,5.14,3.23,7.66c2.17,4.67,6.36,8.83,11.5,9.19s10.47-4.62,9.08-9.57c-1.75-6.23-10.66-6.67-15.08-11.38a9.82,9.82,0,0,1,7.66-16.52c4.52.22,8.37,3.57,10.71,7.45s3.5,8.33,5.15,12.55c2.13,5.47,6.24,11.31,12.11,11.2s10-7,9.11-12.89-5.42-10.59-10.25-14.08-10.25-6.22-14.56-10.34-7.45-10.19-6-16"/><path class="cls-6" d="M352,275.11c-5.69,8.83-19.61,17.12-34.66,31.74C302,320.61,285.51,340.7,268,353s-34,10.93-49.34-8.64c-15-18.81-29-55.72-34.66-96.46s-.81-74.9,14.53-89c15.05-14.91,40.58-9.79,69.47,10.19s54.42,47,69.47,65.94C352.81,254.77,357.68,266.29,352,275.11Z"/><g class="cls-7"><path class="cls-5" d="M291.67,247.62c-4.46,6.45-12.43,12.25-19.82,20.73-7.6,7.95-14.61,18.57-21.85,22.27-13.19,8.46-31.46-22.87-41.67-58.27C197.87,197,215.4,164.13,250,182c16.47,8.19,30.6,24.65,37.87,37.12C295.4,232.17,296.07,241.21,291.67,247.62Z"/></g></g></svg>
