<svg xmlns="http://www.w3.org/2000/svg" viewBox="0 0 500 700"><defs><style>.cls-1{fill:#f8f2a7;}.cls-2,.cls-8{fill:#cec4e2;}.cls-15,.cls-3,.cls-5,.cls-7{fill:none;}.cls-3{stroke:#dedc00;}.cls-13,.cls-14,.cls-15,.cls-3,.cls-5,.cls-7,.cls-8{stroke-miterlimit:10;}.cls-4{fill:#14212f;}.cls-5{stroke:#29235c;}.cls-5,.cls-7{stroke-width:4px;}.cls-6{fill:#72a9b7;}.cls-7,.cls-8{stroke:#72a9b7;}.cls-8{stroke-width:3px;}.cls-9{fill:#ee7374;}.cls-10{fill:#7d6eb0;}.cls-11{fill:#5f7c3e;}.cls-12{fill:#f3912e;}.cls-13{fill:#ededed;}.cls-13,.cls-14,.cls-15{stroke:#14212f;}.cls-14{fill:#dadada;}.cls-16{fill:#616160;}</style></defs><title>vennefoto</title><g id="Layer_14" data-name="Layer 14"><rect class="cls-1" y="0.77" width="501.17" height="700"/><g id="ansikt"><rect class="cls-2" x="391.58" y="265.74" width="38.64" height="71.63" rx="5" ry="5" transform="translate(-80.86 167.58) rotate(-21.03)"/><path class="cls-2" d="M431.81,183.84c21,54.58,6.12,93-25.73,105.2s-68.59-6.27-89.58-60.86,1.19-81.09,33-93.34S410.82,129.25,431.81,183.84Z"/><g id="hår"><circle class="cls-3" cx="322.23" cy="160.56" r="11.17"/><circle class="cls-3" cx="311.77" cy="166.24" r="11.17"/><circle class="cls-3" cx="312.12" cy="207.88" r="11.17"/><circle class="cls-3" cx="414.46" cy="165.08" r="11.17"/><circle class="cls-3" cx="400.86" cy="153.06" r="11.17"/><circle class="cls-3" cx="403.77" cy="168.87" r="11.17"/><circle class="cls-3" cx="408.24" cy="136.28" r="11.17"/><circle class="cls-3" cx="415.65" cy="150.59" r="11.17"/><circle class="cls-3" cx="405.07" cy="167.51" r="11.17"/><circle class="cls-3" cx="408.81" cy="156.2" r="11.17"/><circle class="cls-3" cx="380.03" cy="126.11" r="11.17"/><circle class="cls-3" cx="413.43" cy="159.64" r="11.17"/><circle class="cls-3" cx="420.83" cy="173.94" r="11.17"/><circle class="cls-3" cx="385.22" cy="149.46" r="11.17"/><circle class="cls-3" cx="395.68" cy="129.7" r="11.17"/><circle class="cls-3" cx="398.59" cy="145.52" r="11.17"/><circle class="cls-3" cx="324.34" cy="187.32" r="11.17"/><circle class="cls-3" cx="303.18" cy="194.54" r="11.17"/><circle class="cls-3" cx="311.89" cy="181.03" r="11.17"/><circle class="cls-3" cx="298.54" cy="181.14" r="11.17"/><circle class="cls-3" cx="302.94" cy="165.65" r="11.17"/><circle class="cls-3" cx="324.11" cy="160.46" r="11.17"/><circle class="cls-3" cx="310.76" cy="160.58" r="11.17"/><circle class="cls-3" cx="315.16" cy="145.08" r="11.17"/><circle class="cls-3" cx="334.45" cy="140" r="11.17"/><circle class="cls-3" cx="323.99" cy="145.67" r="11.17"/><circle class="cls-3" cx="350.05" cy="132.48" r="11.17"/><circle class="cls-3" cx="361.59" cy="148.77" r="11.17"/><circle class="cls-3" cx="352.6" cy="140.96" r="11.17"/><circle class="cls-3" cx="313.73" cy="155.91" r="11.17"/><circle class="cls-3" cx="315.4" cy="173.98" r="11.17"/><circle class="cls-3" cx="381.53" cy="128.31" r="11.17"/><circle class="cls-3" cx="342.66" cy="143.26" r="11.17"/><circle class="cls-3" cx="323.08" cy="142.86" r="11.17"/><circle class="cls-3" cx="338.79" cy="146.27" r="11.17"/><circle class="cls-3" cx="334" cy="133.8" r="11.17"/><circle class="cls-3" cx="352.01" cy="130.21" r="11.17"/><circle class="cls-3" cx="367.72" cy="133.62" r="11.17"/><circle class="cls-3" cx="362.93" cy="121.15" r="11.17"/><circle class="cls-3" cx="378.98" cy="119.84" r="11.17"/><circle class="cls-3" cx="390.52" cy="136.12" r="11.17"/></g><g id="hår-2" data-name="hår"><circle class="cls-3" cx="322.04" cy="155.2" r="11.17"/><circle class="cls-3" cx="311.58" cy="160.87" r="11.17"/><circle class="cls-3" cx="311.93" cy="202.51" r="11.17"/><circle class="cls-3" cx="414.27" cy="159.71" r="11.17"/><circle class="cls-3" cx="400.67" cy="147.69" r="11.17"/><circle class="cls-3" cx="403.58" cy="163.5" r="11.17"/><circle class="cls-3" cx="408.05" cy="130.92" r="11.17"/><circle class="cls-3" cx="415.46" cy="145.22" r="11.17"/><circle class="cls-3" cx="404.89" cy="162.14" r="11.17"/><circle class="cls-3" cx="408.62" cy="150.84" r="11.17"/><circle class="cls-3" cx="379.84" cy="120.74" r="11.17"/><circle class="cls-3" cx="413.24" cy="154.27" r="11.17"/><circle class="cls-3" cx="420.64" cy="168.57" r="11.17"/><circle class="cls-3" cx="385.03" cy="144.09" r="11.17"/><circle class="cls-3" cx="395.49" cy="124.34" r="11.17"/><circle class="cls-3" cx="398.4" cy="140.15" r="11.17"/><circle class="cls-3" cx="324.15" cy="181.95" r="11.17"/><circle class="cls-3" cx="302.99" cy="189.17" r="11.17"/><circle class="cls-3" cx="311.7" cy="175.66" r="11.17"/><circle class="cls-3" cx="298.35" cy="175.77" r="11.17"/><circle class="cls-3" cx="302.75" cy="160.28" r="11.17"/><circle class="cls-3" cx="323.92" cy="155.1" r="11.17"/><circle class="cls-3" cx="310.57" cy="155.21" r="11.17"/><circle class="cls-3" cx="314.97" cy="139.71" r="11.17"/><circle class="cls-3" cx="334.26" cy="134.63" r="11.17"/><circle class="cls-3" cx="323.8" cy="140.31" r="11.17"/><circle class="cls-3" cx="349.86" cy="127.12" r="11.17"/><circle class="cls-3" cx="361.4" cy="143.4" r="11.17"/><circle class="cls-3" cx="352.41" cy="135.59" r="11.17"/><circle class="cls-3" cx="313.54" cy="150.54" r="11.17"/><circle class="cls-3" cx="315.21" cy="168.61" r="11.17"/><circle class="cls-3" cx="381.34" cy="122.94" r="11.17"/><circle class="cls-3" cx="342.47" cy="137.89" r="11.17"/><circle class="cls-3" cx="322.89" cy="137.49" r="11.17"/><circle class="cls-3" cx="338.6" cy="140.9" r="11.17"/><circle class="cls-3" cx="333.81" cy="128.43" r="11.17"/><circle class="cls-3" cx="351.82" cy="124.84" r="11.17"/><circle class="cls-3" cx="367.53" cy="128.25" r="11.17"/><circle class="cls-3" cx="362.74" cy="115.78" r="11.17"/><circle class="cls-3" cx="378.79" cy="114.47" r="11.17"/><circle class="cls-3" cx="390.33" cy="130.75" r="11.17"/></g><g id="hatt"><path class="cls-4" d="M304.28,143.06c-5.53-14.39,10.61-34,36.06-43.78s50.57-6,56.11,8.33"/><line class="cls-5" x1="284.22" y1="151.18" x2="420.23" y2="100.82"/></g><g id="solbrille"><circle class="cls-6" cx="329.39" cy="221.53" r="23.3"/><circle class="cls-6" cx="389.83" cy="201.08" r="23.3"/><line class="cls-7" x1="411.58" y1="192.72" x2="420.64" y2="168.57"/><line class="cls-8" x1="345.17" y1="218.25" x2="389.83" y2="201.08"/></g></g><polygon class="cls-9" points="324.18 432.69 194.48 342.23 227.18 302.77 340.96 412.45 324.18 432.69"/><polygon class="cls-9" points="3.57 462.31 52.12 311.82 99.42 331.55 38.25 476.77 3.57 462.31"/><polygon class="cls-9" points="324.91 542.2 300.29 399.25 340.7 409.27 351.12 540.1 324.91 542.2"/><polygon class="cls-9" points="-3.03 619.37 3.19 461.37 38.25 461.37 23.06 622.58 -3.03 619.37"/><polygon class="cls-10" points="20.22 861.96 -29.54 837.45 51.31 590.64 154.89 641.65 20.22 861.96"/><polygon class="cls-10" points="195.93 1097.05 167.21 1097.05 138.77 633.08 236.67 622.99 195.93 1097.05"/><ellipse class="cls-10" cx="144.92" cy="619.44" rx="93.2" ry="37.76"/><ellipse class="cls-4" cx="177.66" cy="138.08" rx="28.15" ry="49.5" transform="translate(-34.78 212.21) rotate(-57.09)"/><ellipse class="cls-4" cx="195.15" cy="190.4" rx="29.14" ry="47.82" transform="matrix(0.82, -0.57, 0.57, 0.82, -73.94, 146.48)"/><ellipse class="cls-4" cx="121.87" cy="147.67" rx="48.96" ry="28.46" transform="matrix(0.77, -0.64, 0.64, 0.77, -66.21, 111.85)"/><ellipse class="cls-4" cx="138.68" cy="125.56" rx="41.21" ry="24.62" transform="translate(-48.18 116.71) rotate(-39.45)"/><ellipse class="cls-4" cx="120.68" cy="191.03" rx="42.95" ry="39.19"/><ellipse class="cls-4" cx="155.39" cy="211.34" rx="42.95" ry="39.19"/><ellipse class="cls-4" cx="155.39" cy="190.4" rx="42.95" ry="39.19"/><ellipse class="cls-4" cx="195.15" cy="258.99" rx="42.95" ry="39.19"/><ellipse class="cls-4" cx="107.61" cy="254.95" rx="42.95" ry="39.19"/><ellipse class="cls-4" cx="98.42" cy="211.34" rx="42.95" ry="39.19"/><ellipse class="cls-4" cx="174.45" cy="148.38" rx="29.92" ry="51.04" transform="translate(-49.77 195.02) rotate(-52.13)"/><ellipse class="cls-10" cx="191.94" cy="205.72" rx="29.92" ry="51.04" transform="translate(-77.14 123.53) rotate(-30)"/><ellipse class="cls-4" cx="118.67" cy="158.89" rx="51.04" ry="29.92" transform="translate(-77.59 130.45) rotate(-45)"/><ellipse class="cls-4" cx="135.48" cy="134.66" rx="42.95" ry="25.89" transform="translate(-55.54 135.24) rotate(-45)"/><circle class="cls-4" cx="117.48" cy="206.41" r="42.95"/><circle class="cls-10" cx="152.19" cy="228.67" r="42.95"/><circle class="cls-4" cx="152.19" cy="205.72" r="42.95"/><circle class="cls-4" cx="191.94" cy="280.88" r="42.95"/><circle class="cls-10" cx="104.41" cy="276.46" r="42.95"/><circle class="cls-4" cx="95.22" cy="228.67" r="42.95"/><ellipse class="cls-4" cx="113.42" cy="128.26" rx="39.7" ry="18.12" transform="translate(-56.06 103.9) rotate(-40.33)"/><rect class="cls-2" x="120.27" y="254.8" width="38.73" height="74.77" rx="5" ry="5" transform="translate(284.88 581.62) rotate(178.89)"/><path class="cls-2" d="M85.82,164.43c-16.64,58.73,1.35,96.89,34.25,106.21s68.24-13.72,84.88-72.45-7.72-83.84-40.62-93.16S102.46,105.7,85.82,164.43Z"/><ellipse class="cls-4" cx="81.86" cy="168.78" rx="38.01" ry="11.76" transform="translate(-101.48 208.42) rotate(-76.33)"/><ellipse class="cls-4" cx="178.07" cy="119.33" rx="10.03" ry="28.96" transform="translate(-24.68 188.93) rotate(-52.77)"/><ellipse class="cls-4" cx="116.62" cy="119.72" rx="38.32" ry="17.13" transform="translate(-48.32 92.76) rotate(-36.47)"/><path class="cls-9" d="M212.15,631.73H73.83c-14.28,0-26-13.62-26-30.27L93.24,472.54,47.86,325.88c0-16.65,11.69-30.27,26-30.27H212.15c14.29,0,26,13.62,26,30.27L205,472.54l33.16,128.92C238.12,618.11,226.44,631.73,212.15,631.73Z"/><ellipse class="cls-2" cx="9.24" cy="629.36" rx="18.65" ry="28.45"/><ellipse class="cls-11" cx="249.96" cy="385.02" rx="29.92" ry="51.04" transform="translate(-207.42 346.02) rotate(-52.13)"/><ellipse class="cls-11" cx="267.45" cy="442.36" rx="29.92" ry="51.04" transform="translate(-185.35 192.99) rotate(-30)"/><ellipse class="cls-11" cx="194.18" cy="395.53" rx="51.04" ry="29.92" transform="translate(-222.81 253.15) rotate(-45)"/><ellipse class="cls-11" cx="210.99" cy="371.3" rx="42.95" ry="25.89" transform="translate(-200.75 257.94) rotate(-45)"/><circle class="cls-11" cx="192.98" cy="443.05" r="42.95"/><circle class="cls-11" cx="227.7" cy="465.31" r="42.95"/><circle class="cls-11" cx="227.7" cy="442.36" r="42.95"/><circle class="cls-11" cx="267.45" cy="517.52" r="42.95"/><circle class="cls-11" cx="179.91" cy="513.1" r="42.95"/><circle class="cls-11" cx="170.73" cy="465.31" r="42.95"/><path class="cls-11" d="M190.63,346.2a45.68,45.68,0,0,0-24.78,24.11c-3.22,7.5-4.93,16.57-11.85,20.9-2.95,1.85-6.48,2.54-9.57,4.15-7.43,3.88-11.21,12.7-11.41,21.08s2.56,16.52,5.29,24.44q7.68,22.29,15.35,44.57c1.92,5.57,3.93,11.3,7.85,15.69,3.12,3.48,7.65,6.63,7.63,11.31"/><path class="cls-11" d="M276.54,374.73c10.88,11.08,22.5,23.91,22.36,39.44-.12,11.9-7.24,22.52-9.93,34.11-2,8.72-1.51,17.83-3,26.66s-5.56,18-13.61,21.93"/><path class="cls-11" d="M253.58,523.72c5.18,3,10.62,6,16.58,6.32s12.58-3.21,13.71-9.08"/><path class="cls-11" d="M216.51,335.6a44.07,44.07,0,0,1,34.66,15.14"/><path class="cls-11" d="M153.94,516.62c2.61,11.4,17.43,18,27.64,12.32"/><path class="cls-11" d="M250.94,488.55a19.12,19.12,0,0,0,6.7,15"/><path class="cls-11" d="M281,408.38a35.12,35.12,0,0,0-2.3,37.23"/><path class="cls-11" d="M167.44,376.24l8.48-19.51"/><path class="cls-11" d="M289.38,447.64A66.81,66.81,0,0,1,271.52,509"/><ellipse class="cls-11" cx="188.92" cy="364.9" rx="39.7" ry="18.12" transform="translate(-191.27 209.02) rotate(-40.33)"/><ellipse class="cls-12" cx="335.48" cy="375.83" rx="18.39" ry="35.24"/><path class="cls-12" d="M227,574.9c12.33-53.55,27-78.33,44.08-59.65-17.39-18.5-35.34-44.84-53.86-81.89-5.75,38.84-10.39,92.6-13.91,159.33C211.3,589.15,219.2,583,227,574.9Z"/><polygon class="cls-12" points="241.88 511.54 372.55 396.56 324.63 350.31 217.29 487.81 241.88 511.54"/><path class="cls-12" d="M460.87,718.71l150.74-49.65c15.57-5.13,23.61-24.79,17.87-43.69l-93.9-130L518,324.94c-5.74-18.9-22.28-37.37-22.28-37.37L345,337.22c-15.57,5.13-23.61,24.78-17.87,43.68l86.69,154.55,8.29,158.22C427.86,712.57,445.3,723.84,460.87,718.71Z"/><ellipse class="cls-2" cx="55.13" cy="612.77" rx="37.52" ry="19.85"/><polygon class="cls-2" points="65.72 626.53 141.84 791.74 187.35 764.91 89.06 612.77 65.72 626.53"/><polygon class="cls-2" points="528.12 833.58 461.63 663.35 426.85 675.95 503.45 846.47 528.12 833.58"/><rect class="cls-2" x="234.02" y="495.18" width="38.73" height="74.77" rx="5" ry="5" transform="translate(584.08 1020.89) rotate(171.34)"/><path class="cls-2" d="M179.11,453.28c25.42,55.5,63.86,72.88,94.95,58.64s43-54.7,17.62-110.2-60.25-58.81-91.34-44.57S153.69,397.79,179.11,453.28Z"/><polygon class="cls-6" points="465.37 659.21 360.75 505.05 322.45 556.85 442.89 696.33 465.37 659.21"/><polygon class="cls-6" points="188.08 811.72 246.2 606.83 181.09 592.79 154.68 804.52 188.08 811.72"/><ellipse class="cls-6" cx="195.54" cy="592.79" rx="18.39" ry="35.24"/><path class="cls-6" d="M322.93,939.67,473.67,890c15.57-5.13,23.61-24.79,17.87-43.69l-93.89-130L380.09,545.9c-5.74-18.9-22.28-37.37-22.28-37.37L207.07,558.18c-15.57,5.13-23.61,24.79-17.87,43.69l86.7,154.54,8.29,158.22C289.93,933.53,307.36,944.8,322.93,939.67Z"/><ellipse class="cls-2" cx="219.09" cy="596.42" rx="18.65" ry="28.45"/><ellipse class="cls-2" cx="337.27" cy="555.22" rx="18.65" ry="28.45"/><ellipse class="cls-11" cx="240.55" cy="365.36" rx="5.44" ry="11.91" transform="translate(-129.53 132.14) rotate(-24.42)"/><ellipse class="cls-11" cx="263.14" cy="367.12" rx="5.44" ry="11.91" transform="translate(-128.24 141.64) rotate(-24.42)"/><ellipse class="cls-11" cx="246.14" cy="361.5" rx="5.44" ry="11.91" transform="translate(-174.12 240.46) rotate(-39.68)"/><ellipse class="cls-11" cx="229.25" cy="350.25" rx="5.44" ry="11.91" transform="translate(-124.29 126.12) rotate(-24.42)"/><ellipse class="cls-11" cx="251.84" cy="352.01" rx="5.44" ry="11.91" transform="translate(-123 135.62) rotate(-24.42)"/><ellipse class="cls-11" cx="237.84" cy="346.39" rx="5.44" ry="11.91" transform="translate(-166.38 231.68) rotate(-39.68)"/><ellipse class="cls-11" cx="198.87" cy="371.3" rx="39.7" ry="18.12" transform="translate(-193.04 216.98) rotate(-40.33)"/><polygon class="cls-9" points="326.56 541.25 307.83 453.97 343.56 459.23 349.93 539.38 326.56 541.25"/><path class="cls-12" d="M223.78,566.66c2.77-12.84,5.89-18.26,9.38-14.71-6.76-7-13.88-20.4-21.38-42.72-5.72,12.53-10.53,43.81-14.42,89.25C206.44,593.41,215.25,581.94,223.78,566.66Z"/></g><g id="play"><g id="briller"><circle class="cls-13" cx="209.31" cy="434.23" r="20.24"/><circle class="cls-14" cx="265.68" cy="411.95" r="20.24"/><line class="cls-15" x1="246.85" y1="419.39" x2="228.14" y2="426.79"/><line class="cls-15" x1="190.49" y1="441.67" x2="151.93" y2="433.32"/><line class="cls-15" x1="284.5" y1="404.51" x2="292.89" y2="389.4"/></g><path class="cls-16" d="M-197.27-76.43v983h839v-983Zm698,775h-503v-700h503Z"/></g></svg>
