<svg xmlns="http://www.w3.org/2000/svg" viewBox="0 0 152 185"><defs><style>.cls-1{fill:#1d1d1b;}.cls-2{fill:#e3bd00;}.cls-3{fill:#575756;}</style></defs><title>Artboard 5</title><g id="Layer_2" data-name="Layer 2"><g id="SH_gul" data-name="SH gul"><path class="cls-1" d="M139,179.11v-28H87.35v28H79.22V101.74h8.13v42.08H139V52.74H147V179.11Z"/><path class="cls-2" d="M71.1,5.89A66.12,66.12,0,1,1,5,72,66.11,66.11,0,0,1,71.1,5.89"/><path class="cls-3" d="M68.36,167.43a42.87,42.87,0,0,0,14.72-.7,41.88,41.88,0,0,0,12.5-4.83q10.89-6.56,13.5-14.55t-2.69-16.81a21.36,21.36,0,0,0-6.31-6.91,24.77,24.77,0,0,0-8.84-3.46Q86,119.1,70.51,118.91q-14-.1-20.65-1.64a31.44,31.44,0,0,1-11.33-4.89A30.89,30.89,0,0,1,30.19,103Q23.07,91.12,27,78.45T44.16,57.89a54.93,54.93,0,0,1,20.3-7.7l6,9.93a43.15,43.15,0,0,0-22.33,6.52q-9.15,5.51-12,13.79t2,16.31a23.15,23.15,0,0,0,6.69,7.49,23.75,23.75,0,0,0,9.48,3.42q5.78.93,18.89.82,17.9,0,26.89,3.55a29,29,0,0,1,14.33,12.45q7.66,12.75,3.78,25t-18.08,20.81a58.12,58.12,0,0,1-13.21,5.55c-5.28,1.57-9.36,2.27-12.23,2.07Z"/></g></g></svg>